<svg width="40" height="40" viewBox="0 0 40 40" fill="none" xmlns="http://www.w3.org/2000/svg">
                  <path d="M31.6128 24.7786C30.7939 23.9259 29.8062 23.47 28.7593 23.47C27.7209 23.47 26.7247 23.9175 25.8721 24.7701L23.2043 27.4295C22.9848 27.3113 22.7653 27.2015 22.5543 27.0918C22.2503 26.9398 21.9633 26.7963 21.7185 26.6443C19.2196 25.0572 16.9486 22.9888 14.7705 20.3126C13.7152 18.9787 13.006 17.8559 12.4911 16.7162C13.1833 16.083 13.8249 15.4245 14.4497 14.7914C14.6861 14.555 14.9224 14.3102 15.1588 14.0738C16.9317 12.3009 16.9317 10.0046 15.1588 8.23172L12.8541 5.92698C12.5924 5.66527 12.3222 5.39512 12.0689 5.12497C11.5624 4.60155 11.0305 4.06124 10.4818 3.5547C9.6629 2.74425 8.6836 2.31369 7.65364 2.31369C6.62368 2.31369 5.62749 2.74425 4.78327 3.5547C4.77482 3.56315 4.77482 3.56315 4.76638 3.57159L1.89601 6.46729C0.815398 7.5479 0.199112 8.86489 0.0640356 10.3929C-0.138579 12.8581 0.587457 15.1544 1.14465 16.6571C2.5123 20.3464 4.55533 23.7655 7.60299 27.4295C11.3007 31.8448 15.7498 35.3314 20.832 37.7881C22.7738 38.7083 25.3655 39.7974 28.2612 39.9831C28.4385 39.9916 28.6242 40 28.7931 40C30.7433 40 32.3811 39.2993 33.6643 37.9063C33.6727 37.8894 33.6896 37.881 33.6981 37.8641C34.1371 37.3322 34.6436 36.851 35.1755 36.3361C35.5385 35.9899 35.9099 35.6269 36.2729 35.247C37.1087 34.3774 37.5477 33.3644 37.5477 32.326C37.5477 31.2791 37.1003 30.2745 36.2476 29.4303L31.6128 24.7786ZM34.6351 33.6683C34.6267 33.6683 34.6267 33.6767 34.6351 33.6683C34.3059 34.0229 33.9682 34.3437 33.6052 34.6983C33.0564 35.2217 32.4993 35.7704 31.9758 36.3867C31.1232 37.2985 30.1185 37.729 28.8015 37.729C28.6749 37.729 28.5398 37.729 28.4132 37.7206C25.9058 37.5602 23.5758 36.5809 21.8282 35.7451C17.0499 33.4319 12.8541 30.1479 9.36742 25.9858C6.48861 22.5161 4.56377 19.308 3.28898 15.8635C2.50385 13.7614 2.21682 12.1236 2.34345 10.5787C2.42787 9.59093 2.80777 8.77203 3.50848 8.07132L6.3873 5.19251C6.80097 4.80416 7.23997 4.5931 7.67052 4.5931C8.20239 4.5931 8.63294 4.91391 8.9031 5.18406C8.91154 5.19251 8.91998 5.20095 8.92842 5.20939C9.4434 5.6906 9.93305 6.18869 10.448 6.72056C10.7097 6.99071 10.9799 7.26086 11.25 7.53946L13.5548 9.8442C14.4497 10.7391 14.4497 11.5664 13.5548 12.4613C13.31 12.7061 13.0736 12.951 12.8288 13.1873C12.1196 13.9134 11.4442 14.5888 10.7097 15.2473C10.6929 15.2641 10.676 15.2726 10.6675 15.2895C9.9415 16.0155 10.0766 16.7247 10.2285 17.2059C10.237 17.2312 10.2454 17.2565 10.2539 17.2818C10.8533 18.7339 11.6975 20.1016 12.9807 21.7309L12.9892 21.7394C15.3192 24.6097 17.7759 26.8469 20.4859 28.5607C20.832 28.7802 21.1866 28.9575 21.5243 29.1264C21.8282 29.2783 22.1153 29.4218 22.3601 29.5738C22.3938 29.5907 22.4276 29.616 22.4614 29.6329C22.7484 29.7764 23.0186 29.8439 23.2972 29.8439C23.9979 29.8439 24.4369 29.4049 24.5804 29.2614L27.4677 26.3742C27.7547 26.0871 28.2106 25.741 28.7424 25.741C29.2659 25.741 29.6964 26.0702 29.9581 26.3573C29.9666 26.3657 29.9666 26.3657 29.975 26.3742L34.6267 31.0259C35.4963 31.887 35.4963 32.7734 34.6351 33.6683Z" fill="white"/>
                  <path d="M21.6168 9.51496C23.8287 9.88642 25.838 10.9333 27.442 12.5373C29.046 14.1413 30.0844 16.1506 30.4643 18.3625C30.5572 18.9197 31.0384 19.308 31.5872 19.308C31.6547 19.308 31.7138 19.2996 31.7813 19.2911C32.4061 19.1898 32.8197 18.5989 32.7184 17.9741C32.2625 15.2979 30.9962 12.8581 29.0629 10.9248C27.1296 8.99154 24.6898 7.7252 22.0136 7.26932C21.3889 7.16801 20.8064 7.58168 20.6966 8.19797C20.5869 8.81425 20.9921 9.41365 21.6168 9.51496Z" fill="white"/>
                  <path d="M39.9542 17.6449C39.2028 13.238 37.126 9.22793 33.9349 6.03675C30.7437 2.84557 26.7336 0.768768 22.3267 0.017406C21.7104 -0.0923436 21.1279 0.32977 21.0182 0.946056C20.9169 1.57078 21.3305 2.1533 21.9553 2.26305C25.8894 2.92999 29.4773 4.79573 32.3308 7.64078C35.1843 10.4943 37.0416 14.0822 37.7086 18.0163C37.8014 18.5735 38.2826 18.9619 38.8314 18.9619C38.8989 18.9619 38.958 18.9534 39.0256 18.945C39.6418 18.8521 40.0639 18.2612 39.9542 17.6449Z" fill="white"/>
                </svg>    