<svg width="60" height="71" viewBox="0 0 60 71" fill="none" xmlns="http://www.w3.org/2000/svg">
  <g clip-path="url(#clip0_526_331)">
    <path
      d="M31.4243 0C32.0947 0.304913 32.8209 0.526668 33.4075 0.942458C34.5807 1.77404 35.0975 2.99369 35.1114 4.42124C35.1114 4.76773 35.1114 5.11422 35.1114 5.55773C35.4047 5.55773 35.6561 5.55773 35.8936 5.55773C39.1058 5.55773 42.3181 5.55773 45.5304 5.55773C47.9746 5.55773 49.3712 6.9437 49.3712 9.39686C49.3712 9.56318 49.3852 9.71563 49.3712 9.88195C49.3014 10.3532 49.4969 10.6027 49.9578 10.8244C50.9075 11.2541 51.8014 11.7946 52.8768 12.3767C53.212 12.0025 53.5891 11.5312 54.0081 11.1155C55.5025 9.67405 57.6114 9.64633 58.9941 11.06C60.3489 12.4321 60.307 14.5249 58.8684 15.9663C54.7623 20.055 50.6422 24.1436 46.522 28.2183C44.9997 29.729 42.9606 29.7151 41.4383 28.2044C39.5528 26.3472 37.6813 24.49 35.8098 22.619C34.3293 21.136 34.2734 19.0571 35.6701 17.6711C37.0528 16.2851 39.1757 16.3128 40.6561 17.7681C41.7455 18.8353 42.8209 19.9164 43.8405 20.9281C46.2427 18.5442 48.631 16.1742 51.0332 13.7904C49.7762 12.8479 48.226 12.2104 46.536 11.947C39.7762 10.8798 33.8265 15.6337 33.4075 22.425C33.0165 28.8836 38.7567 34.4967 45.2651 34.0255C51.117 33.6097 55.4327 29.3271 55.8377 23.5337C55.8936 22.716 56.2846 22.2864 56.955 22.3279C57.6114 22.3557 58.0025 22.8407 57.9327 23.6585C57.4997 28.8558 54.9159 32.6257 50.1952 34.9125C49.5248 35.2313 49.3572 35.5639 49.3712 36.2431C49.3852 46.3745 49.3572 56.5198 49.4131 66.6512C49.4271 68.7717 48.7288 70.2686 46.6477 70.9754C32.0248 70.9754 17.4159 70.9754 2.793 70.9754C1.43825 70.518 0.404733 69.7558 0.0974708 68.2728C0.0276383 67.954 0.0136719 67.6352 0.0136719 67.3164C0.0136719 47.9545 0.0136719 28.6064 0.0136719 9.2444C0.0136719 6.99914 1.45222 5.57159 3.72876 5.57159C5.89356 5.57159 8.05836 5.57159 10.2232 5.57159C11.0332 5.57159 11.4941 5.98738 11.4802 6.65264C11.4662 7.24861 11.0193 7.65054 10.293 7.65054C8.15613 7.6644 6.00529 7.65054 3.86842 7.65054C2.56954 7.65054 2.10864 8.10791 2.10864 9.41072C2.10864 28.648 2.10864 47.8852 2.10864 67.1363C2.10864 68.4529 2.55557 68.8964 3.85445 68.8964C17.7511 68.8964 31.6477 68.8964 45.5444 68.8964C46.8293 68.8964 47.3042 68.4529 47.3042 67.2056C47.3042 56.9771 47.3042 46.7348 47.3042 36.5064C47.3042 36.3262 47.2762 36.146 47.2623 35.9104C42.4159 36.6588 38.2399 35.4115 34.874 31.8634C32.388 29.2301 31.2148 26.0423 31.3405 22.4527C31.6198 14.3586 39.1617 8.31581 47.1924 9.86809C47.5695 8.46826 46.969 7.65054 45.5444 7.65054C42.3042 7.65054 39.0779 7.65054 35.8377 7.65054C35.6282 7.65054 35.4327 7.6644 35.1254 7.69212C35.1254 8.21879 35.1394 8.71774 35.1254 9.21668C35.0835 10.7828 34.1059 11.7669 32.5137 11.7669C27.3042 11.7807 22.0807 11.7807 16.8712 11.7669C15.2651 11.7669 14.2595 10.7274 14.2595 9.14739C14.2455 7.6644 14.2595 6.19527 14.2595 4.71229C14.2595 2.32843 15.3908 0.817721 17.7092 0.124737C17.7651 0.110877 17.8209 0.0554387 17.8768 0.0138597C22.388 0 26.9131 0 31.4243 0ZM24.7204 9.66019C27.2343 9.66019 29.7483 9.64633 32.2483 9.67405C32.8209 9.67405 33.0304 9.49388 33.0304 8.91177C33.0025 7.42879 33.0444 5.95966 33.0165 4.47668C32.9885 2.97983 32.0528 2.07895 30.5444 2.06509C26.6338 2.05123 22.7371 2.05123 18.8265 2.06509C17.3042 2.06509 16.3545 3.02141 16.3545 4.54597C16.3405 5.97352 16.3824 7.41493 16.3405 8.84247C16.3265 9.49388 16.564 9.67405 17.1924 9.67405C19.6924 9.64633 22.2064 9.66019 24.7204 9.66019ZM38.2818 18.669C37.9885 18.7383 37.8489 18.7521 37.7092 18.7937C36.6896 19.1402 36.4662 20.3044 37.3042 21.136C39.1059 22.9378 40.9215 24.7395 42.7371 26.5274C43.6869 27.4699 44.3153 27.4699 45.279 26.5136C49.2455 22.5774 53.212 18.6413 57.1785 14.7051C57.3321 14.5527 57.4857 14.4141 57.6114 14.2477C58.0165 13.6934 57.9606 12.9311 57.4857 12.4737C56.9969 12.0025 56.2707 11.9609 55.712 12.4044C55.5165 12.5569 55.3349 12.7509 55.1533 12.9311C51.7595 16.299 48.3796 19.6669 44.9857 23.0209C44.2455 23.7555 43.7707 23.7555 43.0304 23.0209C41.7734 21.7874 40.5444 20.5262 39.2734 19.3065C38.9662 19.0155 38.5472 18.8492 38.2818 18.669Z"
      fill="#42B42F" />
    <path
      d="M13.1568 42.2582C13.1288 44.5589 11.2434 46.4161 8.92492 46.4161C6.57855 46.4022 4.69308 44.5034 4.72101 42.1612C4.74894 39.8604 6.64838 37.9894 8.95285 38.0033C11.2992 38.0171 13.1707 39.9159 13.1568 42.2582ZM6.81598 42.2305C6.81598 43.3947 7.77967 44.351 8.95285 44.3371C10.1121 44.3233 11.0618 43.3669 11.0618 42.2027C11.0618 41.0385 10.0841 40.0822 8.92492 40.0822C7.75174 40.0961 6.80202 41.0662 6.81598 42.2305Z"
      fill="#42B42F" />
    <path
      d="M4.70703 29.4519C4.70703 27.1373 6.56457 25.2524 8.88301 25.2247C11.2433 25.1969 13.1568 27.068 13.1568 29.4103C13.1707 31.7526 11.2573 33.6514 8.92491 33.6375C6.60647 33.6375 4.721 31.7664 4.70703 29.4519ZM11.0618 29.4519C11.0757 28.2877 10.126 27.3175 8.96681 27.3036C7.79362 27.2898 6.82994 28.2322 6.81597 29.3964C6.802 30.5606 7.75172 31.5308 8.91094 31.5447C10.0702 31.5724 11.0478 30.6161 11.0618 29.4519Z"
      fill="#42B42F" />
    <path
      d="M4.72043 54.7735C4.76233 52.4728 6.67574 50.6156 8.99418 50.6572C11.3545 50.6988 13.1981 52.5837 13.1562 54.9398C13.1143 57.2682 11.2009 59.0977 8.81261 59.0423C6.50814 59.0007 4.67853 57.0881 4.72043 54.7735ZM11.0612 54.8844C11.0752 53.7063 10.1394 52.75 8.96624 52.7361C7.79306 52.7223 6.82937 53.6647 6.8154 54.8289C6.80144 56.007 7.73719 56.9495 8.91038 56.9633C10.0975 56.9772 11.0472 56.0486 11.0612 54.8844Z"
      fill="#42B42F" />
    <path
      d="M24.4553 38.7794C27.1928 38.7794 29.9442 38.7655 32.6816 38.7932C33.0587 38.7932 33.5336 38.9457 33.785 39.209C34.2738 39.6941 33.9945 40.5534 33.3101 40.7613C33.0587 40.8444 32.7654 40.8444 32.4861 40.8444C27.0671 40.8444 21.662 40.8444 16.2431 40.8444C16.1034 40.8444 15.9637 40.8444 15.8241 40.8444C15.1397 40.789 14.7067 40.3316 14.7347 39.7357C14.7766 39.1536 15.1956 38.7794 15.8799 38.7794C18.7291 38.7655 21.5922 38.7794 24.4553 38.7794Z"
      fill="#42B42F" />
    <path
      d="M24.371 56.2426C27.1364 56.2426 29.9018 56.2288 32.6671 56.2565C33.0442 56.2565 33.5191 56.4089 33.7705 56.6584C34.2593 57.1435 33.98 58.0028 33.3096 58.2246C33.0302 58.3216 32.723 58.3216 32.4157 58.3216C27.0526 58.3216 21.6755 58.3216 16.3124 58.3216C16.1448 58.3216 15.9911 58.3354 15.8235 58.3216C15.1392 58.2661 14.6923 57.8088 14.7342 57.2128C14.7621 56.6445 15.1811 56.2426 15.8654 56.2426C18.3794 56.2288 20.8794 56.2288 23.3934 56.2288C23.7146 56.2288 24.0498 56.2426 24.371 56.2426Z"
      fill="#42B42F" />
    <path
      d="M22.1372 51.4055C24.1903 51.4055 26.2294 51.4055 28.2825 51.4055C29.1065 51.4055 29.5813 51.7797 29.5953 52.4173C29.6093 53.0687 29.1065 53.4845 28.2545 53.4845C24.1763 53.4845 20.1121 53.4845 16.0339 53.4845C15.2238 53.4845 14.735 53.0964 14.721 52.4589C14.707 51.7936 15.1819 51.4055 16.0618 51.4055C18.0869 51.4055 20.1121 51.4055 22.1372 51.4055Z"
      fill="#42B42F" />
    <path
      d="M22.1648 33.0275C20.0419 33.0275 17.933 33.0414 15.8101 33.0275C15.1397 33.0275 14.7207 32.5979 14.7207 32.0158C14.7207 31.4475 15.1397 31.0317 15.7961 30.9763C15.9637 30.9624 16.1174 30.9624 16.2849 30.9624C17.3045 30.9624 18.338 30.9624 19.3576 30.9624C22.2207 30.9624 25.0838 30.9624 27.947 30.9624C28.1844 30.9624 28.4079 30.9486 28.6453 30.9901C29.2458 31.0733 29.6509 31.5445 29.595 32.0712C29.5252 32.6533 29.19 32.9998 28.5894 33.0275C27.9609 33.0552 27.3324 33.0414 26.7039 33.0414C25.1956 33.0275 23.6732 33.0275 22.1648 33.0275Z"
      fill="#42B42F" />
    <path
      d="M22.0949 28.2182C20.1396 28.2182 18.1843 28.2182 16.229 28.2182C15.9776 28.2182 15.6424 28.2736 15.4888 28.135C15.1815 27.8717 14.8463 27.5252 14.7625 27.1649C14.6647 26.6798 15.0139 26.2917 15.5446 26.1808C15.796 26.1254 16.0474 26.1392 16.3128 26.1392C20.2234 26.1392 24.134 26.1392 28.0307 26.1392C28.0726 26.1392 28.1284 26.1392 28.1703 26.1392C29.1061 26.1531 29.6089 26.5134 29.6089 27.1787C29.6089 27.8578 29.12 28.2182 28.1703 28.2182C26.1312 28.2182 24.1061 28.2182 22.0949 28.2182Z"
      fill="#42B42F" />
    <path
      d="M20.0283 45.6814C18.7014 45.6814 17.3746 45.6952 16.0478 45.6814C15.2098 45.6675 14.7489 45.2933 14.721 44.6696C14.707 44.0044 15.1959 43.6024 16.0618 43.6024C18.7433 43.5886 21.4109 43.5886 24.0925 43.6024C24.9305 43.6024 25.3914 43.9905 25.4193 44.6142C25.4333 45.2656 24.9445 45.6814 24.0785 45.6814C22.7238 45.6814 21.383 45.6814 20.0283 45.6814Z"
      fill="#42B42F" />
    <path
      d="M10.2093 17.4631C9.11995 17.4631 8.0166 17.4631 6.92721 17.4631C6.11716 17.4631 5.65626 17.0612 5.67023 16.3959C5.6842 15.7722 6.13112 15.3842 6.91325 15.3842C9.11995 15.3703 11.3267 15.3703 13.5473 15.3842C14.3574 15.3842 14.8183 15.8 14.8043 16.4514C14.7903 17.0751 14.3294 17.4631 13.5613 17.4631C12.444 17.477 11.3267 17.4631 10.2093 17.4631Z"
      fill="#42B42F" />
  </g>
  <defs>
    <clipPath id="clip0_526_331">
      <rect width="60" height="70.9615" fill="white" />
    </clipPath>
  </defs>
</svg>  