<svg width="40" height="40" viewBox="0 0 40 40" fill="none" xmlns="http://www.w3.org/2000/svg">
                      <path d="M8.44509 10.4345C8.69236 10.65 9.06744 10.62 9.27783 10.3706L10.7042 8.6801C10.9129 8.43275 10.8816 8.06315 10.6342 7.8544C10.3868 7.64572 10.0172 7.67713 9.80853 7.9244L8.76603 9.15994L8.40056 8.84158C8.15658 8.62893 7.7865 8.65432 7.57384 8.89846C7.36127 9.14244 7.38673 9.51252 7.6308 9.7251L8.44509 10.4345Z" fill="white"/>
                      <path d="M10.6342 18.7069C10.3868 18.4983 10.0172 18.5297 9.80853 18.7769L8.76603 20.0125L8.40056 19.6941C8.15658 19.4815 7.7865 19.5069 7.57384 19.751C7.36127 19.995 7.38673 20.3651 7.6308 20.5776L8.44509 21.2871C8.69236 21.5026 9.06744 21.4726 9.27783 21.2233L10.7042 19.5327C10.9129 19.2854 10.8815 18.9157 10.6342 18.7069Z" fill="white"/>
                      <path d="M10.6342 29.559C10.3868 29.3503 10.0172 29.3817 9.80853 29.629L8.76603 30.8645L8.40056 30.5462C8.15658 30.3335 7.7865 30.3589 7.57384 30.603C7.36127 30.847 7.38673 31.2171 7.6308 31.4297L8.44509 32.1391C8.69236 32.3547 9.06744 32.3247 9.27783 32.0753L10.7042 30.3848C10.9129 30.1374 10.8815 29.7677 10.6342 29.559Z" fill="white"/>
                      <path d="M16.2129 8.30664H28.5983C28.922 8.30664 29.1842 8.04438 29.1842 7.7207C29.1842 7.39703 28.922 7.13477 28.5983 7.13477H16.2129C15.8892 7.13477 15.627 7.39703 15.627 7.7207C15.627 8.04438 15.8892 8.30664 16.2129 8.30664Z" fill="white"/>
                      <path d="M16.2129 11.1606H28.5983C28.922 11.1606 29.1842 10.8984 29.1842 10.5747C29.1842 10.251 28.922 9.98877 28.5983 9.98877H16.2129C15.8892 9.98877 15.627 10.251 15.627 10.5747C15.627 10.8984 15.8892 11.1606 16.2129 11.1606Z" fill="white"/>
                      <path d="M11.7175 4.84375H6.55492C5.60492 4.84375 4.83203 5.61664 4.83203 6.56664V7.72094C4.83203 8.04461 5.0943 8.30688 5.41797 8.30688C5.74164 8.30688 6.00391 8.04461 6.00391 7.72094V6.56664C6.00391 6.26281 6.25109 6.01563 6.55492 6.01563H11.7175C12.0213 6.01563 12.2684 6.26281 12.2684 6.56664V11.7292C12.2684 12.033 12.0213 12.2802 11.7175 12.2802H6.55492C6.25109 12.2802 6.00391 12.033 6.00391 11.7292V10.5174C6.00391 10.1938 5.74164 9.93149 5.41797 9.93149C5.0943 9.93149 4.83203 10.1938 4.83203 10.5174V11.7292C4.83203 12.6791 5.60492 13.452 6.55492 13.452H11.7175C12.6674 13.452 13.4403 12.6791 13.4403 11.7292V6.56664C13.4402 5.61664 12.6674 4.84375 11.7175 4.84375Z" fill="white"/>
                      <path d="M11.7175 15.6958H6.55492C5.60492 15.6958 4.83203 16.4687 4.83203 17.4187V22.5813C4.83203 23.5312 5.60492 24.3041 6.55492 24.3041H11.7175C12.6674 24.3041 13.4403 23.5312 13.4403 22.5813V17.4187C13.4402 16.4687 12.6674 15.6958 11.7175 15.6958ZM12.2684 22.5813C12.2684 22.8851 12.0212 23.1322 11.7174 23.1322H6.55492C6.25109 23.1322 6.00391 22.8851 6.00391 22.5813V17.4187C6.00391 17.1149 6.25109 16.8677 6.55492 16.8677H11.7175C12.0213 16.8677 12.2684 17.1149 12.2684 17.4187L12.2684 22.5813Z" fill="white"/>
                      <path d="M11.7175 26.5483H6.55492C5.60492 26.5483 4.83203 27.3212 4.83203 28.2712V33.4338C4.83203 34.3837 5.60492 35.1566 6.55492 35.1566H11.7175C12.6674 35.1566 13.4403 34.3837 13.4403 33.4338V28.2712C13.4402 27.3212 12.6674 26.5483 11.7175 26.5483ZM12.2684 33.4338C12.2684 33.7376 12.0212 33.9847 11.7174 33.9847H6.55492C6.25109 33.9847 6.00391 33.7376 6.00391 33.4338V28.2712C6.00391 27.9674 6.25109 27.7202 6.55492 27.7202H11.7175C12.0213 27.7202 12.2684 27.9674 12.2684 28.2712L12.2684 33.4338Z" fill="white"/>
                      <path d="M37.0414 5.19195C35.5098 4.52484 33.721 5.22773 33.0537 6.7593L32.8784 7.16164V4.14C32.8784 1.85719 31.0212 0 28.7384 0H5.27867C2.99586 0 1.13867 1.85719 1.13867 4.14V35.86C1.13867 38.1428 2.99586 40 5.27867 40H28.7384C31.0212 40 32.8784 38.1428 32.8784 35.86V22.3316C33.1787 21.6423 38.2757 9.94398 38.6087 9.17969C39.2777 7.64445 38.5766 5.86086 37.0414 5.19195ZM22.1896 31.6934H16.213C15.8894 31.6934 15.6271 31.9557 15.6271 32.2794C15.6271 32.603 15.8894 32.8653 16.213 32.8653H21.6816C21.4048 33.5308 21.2655 34.2334 21.2702 34.9561V34.9562L21.2962 38.8281H5.27867C3.64203 38.8281 2.31055 37.4966 2.31055 35.86V4.14C2.31055 2.50336 3.64203 1.17188 5.27867 1.17188H28.7384C30.375 1.17188 31.7065 2.50336 31.7065 4.14V9.85125C30.9661 11.5505 28.8855 16.3256 28.1616 17.9872H16.2131C15.8895 17.9872 15.6272 18.2495 15.6272 18.5731C15.6272 18.8968 15.8895 19.1591 16.2131 19.1591H27.651L26.9182 20.841H16.2131C15.8895 20.841 15.6272 21.1033 15.6272 21.427C15.6272 21.7506 15.8895 22.0129 16.2131 22.0129H26.4076L23.4331 28.8396H16.2131C15.8895 28.8396 15.6272 29.1019 15.6272 29.4255C15.6272 29.7492 15.8895 30.0115 16.2131 30.0115H22.9225L22.1896 31.6934ZM22.4421 34.9483C22.4409 34.7615 22.4532 34.5766 22.4762 34.3937C22.9887 34.617 22.2743 34.3057 25.572 35.7425C25.4537 35.8839 25.3267 36.0188 25.1891 36.1451L22.4669 38.642L22.4421 34.9483ZM31.7065 35.86C31.7065 37.4966 30.375 38.8281 28.7384 38.8281H23.9977L25.9812 37.0088C26.5362 36.4996 26.9702 35.8914 27.2712 35.2008L31.7065 25.0211V35.86ZM26.1968 34.7327C26.1963 34.7337 26.1958 34.7347 26.1953 34.7358L25.0294 34.2278L27.7874 27.8978C27.9166 27.6011 27.7809 27.2559 27.4843 27.1266C27.1875 26.9974 26.8423 27.1331 26.713 27.4297L23.955 33.7597L22.7891 33.2517C22.7896 33.2507 22.7899 33.2496 22.7904 33.2486L31.7481 12.6898L32.9141 13.1977L27.8071 24.9187C27.6779 25.2155 27.8136 25.5607 28.1102 25.69C28.4086 25.8199 28.7529 25.682 28.8815 25.3869L33.9884 13.6658L35.1544 14.1737C35.0119 14.5009 26.3323 34.4216 26.1968 34.7327ZM35.6226 13.0994L32.2162 11.6153L32.7977 10.2808L36.2041 11.7649L35.6226 13.0994ZM37.5344 8.71156L36.6721 10.6905L33.2658 9.20641L34.128 7.22742C34.5371 6.28828 35.6341 5.85711 36.5733 6.26633C37.5145 6.67633 37.9448 7.77 37.5344 8.71156Z" fill="white"/>
                    </svg>   