<svg width="40" height="40" viewBox="0 0 40 40" fill="none" xmlns="http://www.w3.org/2000/svg">
  <g clip-path="url(#clip0_510_5859)">
    <path
      d="M9.44607 10.4345C9.69334 10.65 10.0684 10.62 10.2788 10.3706L11.7052 8.6801C11.9139 8.43275 11.8826 8.06315 11.6352 7.8544C11.3878 7.64572 11.0182 7.67713 10.8095 7.9244L9.76701 9.15994L9.40154 8.84158C9.15755 8.62893 8.78748 8.65432 8.57482 8.89846C8.36224 9.14244 8.38771 9.51252 8.63177 9.7251L9.44607 10.4345Z"
      fill="#42B42F" />
    <path
      d="M11.6352 18.7069C11.3878 18.4983 11.0182 18.5297 10.8095 18.7769L9.76701 20.0125L9.40154 19.6941C9.15755 19.4815 8.78748 19.5069 8.57482 19.751C8.36224 19.995 8.38771 20.3651 8.63177 20.5776L9.44607 21.2871C9.69334 21.5026 10.0684 21.4726 10.2788 21.2233L11.7052 19.5327C11.9139 19.2854 11.8825 18.9157 11.6352 18.7069Z"
      fill="#42B42F" />
    <path
      d="M11.6352 29.5595C11.3878 29.3508 11.0182 29.3822 10.8095 29.6295L9.76701 30.865L9.40154 30.5467C9.15755 30.334 8.78748 30.3594 8.57482 30.6035C8.36224 30.8475 8.38771 31.2176 8.63177 31.4302L9.44607 32.1396C9.69334 32.3552 10.0684 32.3252 10.2788 32.0758L11.7052 30.3853C11.9139 30.1379 11.8825 29.7682 11.6352 29.5595Z"
      fill="#42B42F" />
    <path
      d="M17.2129 8.30664H29.5983C29.922 8.30664 30.1842 8.04438 30.1842 7.7207C30.1842 7.39703 29.922 7.13477 29.5983 7.13477H17.2129C16.8892 7.13477 16.627 7.39703 16.627 7.7207C16.627 8.04438 16.8892 8.30664 17.2129 8.30664Z"
      fill="#42B42F" />
    <path
      d="M17.2129 11.1606H29.5983C29.922 11.1606 30.1842 10.8984 30.1842 10.5747C30.1842 10.251 29.922 9.98877 29.5983 9.98877H17.2129C16.8892 9.98877 16.627 10.251 16.627 10.5747C16.627 10.8984 16.8892 11.1606 17.2129 11.1606Z"
      fill="#42B42F" />
    <path
      d="M12.7185 4.84326H7.5559C6.6059 4.84326 5.83301 5.61615 5.83301 6.56615V7.72045C5.83301 8.04412 6.09527 8.30639 6.41895 8.30639C6.74262 8.30639 7.00488 8.04412 7.00488 7.72045V6.56615C7.00488 6.26232 7.25207 6.01514 7.5559 6.01514H12.7185C13.0223 6.01514 13.2694 6.26232 13.2694 6.56615V11.7287C13.2694 12.0326 13.0223 12.2797 12.7185 12.2797H7.5559C7.25207 12.2797 7.00488 12.0326 7.00488 11.7287V10.5169C7.00488 10.1933 6.74262 9.931 6.41895 9.931C6.09527 9.931 5.83301 10.1933 5.83301 10.5169V11.7287C5.83301 12.6787 6.6059 13.4515 7.5559 13.4515H12.7185C13.6684 13.4515 14.4413 12.6787 14.4413 11.7287V6.56615C14.4412 5.61615 13.6684 4.84326 12.7185 4.84326Z"
      fill="#42B42F" />
    <path
      d="M12.7185 15.6958H7.5559C6.6059 15.6958 5.83301 16.4687 5.83301 17.4187V22.5813C5.83301 23.5312 6.6059 24.3041 7.5559 24.3041H12.7185C13.6684 24.3041 14.4413 23.5312 14.4413 22.5813V17.4187C14.4412 16.4687 13.6684 15.6958 12.7185 15.6958ZM13.2693 22.5813C13.2693 22.8851 13.0222 23.1322 12.7184 23.1322H7.5559C7.25207 23.1322 7.00488 22.8851 7.00488 22.5813V17.4187C7.00488 17.1149 7.25207 16.8677 7.5559 16.8677H12.7185C13.0223 16.8677 13.2694 17.1149 13.2694 17.4187L13.2693 22.5813Z"
      fill="#42B42F" />
    <path
      d="M12.7185 26.5483H7.5559C6.6059 26.5483 5.83301 27.3212 5.83301 28.2712V33.4338C5.83301 34.3837 6.6059 35.1566 7.5559 35.1566H12.7185C13.6684 35.1566 14.4413 34.3837 14.4413 33.4338V28.2712C14.4412 27.3212 13.6684 26.5483 12.7185 26.5483ZM13.2693 33.4338C13.2693 33.7376 13.0222 33.9847 12.7184 33.9847H7.5559C7.25207 33.9847 7.00488 33.7376 7.00488 33.4338V28.2712C7.00488 27.9674 7.25207 27.7202 7.5559 27.7202H12.7185C13.0223 27.7202 13.2694 27.9674 13.2694 28.2712L13.2693 33.4338Z"
      fill="#42B42F" />
    <path
      d="M38.0414 5.19195C36.5098 4.52484 34.721 5.22773 34.0537 6.7593L33.8784 7.16164V4.14C33.8784 1.85719 32.0212 0 29.7384 0H6.27867C3.99586 0 2.13867 1.85719 2.13867 4.14V35.86C2.13867 38.1428 3.99586 40 6.27867 40H29.7384C32.0212 40 33.8784 38.1428 33.8784 35.86V22.3316C34.1787 21.6423 39.2757 9.94398 39.6087 9.17969C40.2777 7.64445 39.5766 5.86086 38.0414 5.19195ZM23.1896 31.6934H17.213C16.8894 31.6934 16.6271 31.9557 16.6271 32.2794C16.6271 32.603 16.8894 32.8653 17.213 32.8653H22.6816C22.4048 33.5308 22.2655 34.2334 22.2702 34.9561V34.9562L22.2962 38.8281H6.27867C4.64203 38.8281 3.31055 37.4966 3.31055 35.86V4.14C3.31055 2.50336 4.64203 1.17188 6.27867 1.17188H29.7384C31.375 1.17188 32.7065 2.50336 32.7065 4.14V9.85125C31.9661 11.5505 29.8855 16.3256 29.1616 17.9872H17.2131C16.8895 17.9872 16.6272 18.2495 16.6272 18.5731C16.6272 18.8968 16.8895 19.1591 17.2131 19.1591H28.651L27.9182 20.841H17.2131C16.8895 20.841 16.6272 21.1033 16.6272 21.427C16.6272 21.7506 16.8895 22.0129 17.2131 22.0129H27.4076L24.4331 28.8396H17.2131C16.8895 28.8396 16.6272 29.1019 16.6272 29.4255C16.6272 29.7492 16.8895 30.0115 17.2131 30.0115H23.9225L23.1896 31.6934ZM23.4421 34.9483C23.4409 34.7615 23.4532 34.5766 23.4762 34.3937C23.9887 34.617 23.2743 34.3057 26.572 35.7425C26.4537 35.8839 26.3267 36.0188 26.1891 36.1451L23.4669 38.642L23.4421 34.9483ZM32.7065 35.86C32.7065 37.4966 31.375 38.8281 29.7384 38.8281H24.9977L26.9812 37.0088C27.5362 36.4996 27.9702 35.8914 28.2712 35.2008L32.7065 25.0211V35.86ZM27.1968 34.7327C27.1963 34.7337 27.1958 34.7347 27.1953 34.7358L26.0294 34.2278L28.7874 27.8978C28.9166 27.6011 28.7809 27.2559 28.4843 27.1266C28.1875 26.9974 27.8423 27.1331 27.713 27.4297L24.955 33.7597L23.7891 33.2517C23.7896 33.2507 23.7899 33.2496 23.7904 33.2486L32.7481 12.6898L33.9141 13.1977L28.8071 24.9187C28.6779 25.2155 28.8136 25.5607 29.1102 25.69C29.4086 25.8199 29.7529 25.682 29.8815 25.3869L34.9884 13.6658L36.1544 14.1737C36.0119 14.5009 27.3323 34.4216 27.1968 34.7327ZM36.6226 13.0994L33.2162 11.6153L33.7977 10.2808L37.2041 11.7649L36.6226 13.0994ZM38.5344 8.71156L37.6721 10.6905L34.2658 9.20641L35.128 7.22742C35.5371 6.28828 36.6341 5.85711 37.5733 6.26633C38.5145 6.67633 38.9448 7.77 38.5344 8.71156Z"
      fill="#42B42F" />
  </g>
  <defs>
    <clipPath id="clip0_510_5859">
      <rect width="40" height="40" fill="white" />
    </clipPath>
  </defs>
</svg>     