<svg width="30" height="30" viewBox="0 0 30 30" fill="none" xmlns="http://www.w3.org/2000/svg">
  <g clip-path="url(#clip111)">
    <path
      d="M29.3801 1.1367C29.3532 1.01438 29.2922 0.898036 29.1971 0.802938C29.102 0.707908 28.9857 0.646817 28.8634 0.620005C25.8203 -0.101342 22.7132 -0.193521 19.8086 0.344893C19.8073 0.345096 19.8061 0.345368 19.8048 0.345572C19.4478 0.411889 19.0935 0.48771 18.743 0.573033C16.2621 1.17688 13.9606 2.26165 11.9732 3.7522C11.9414 3.77236 11.9112 3.7951 11.8833 3.82008C11.2401 4.30874 10.6301 4.84036 10.0585 5.41204C7.70227 7.76831 6.02892 10.7713 5.21947 14.0965C4.46724 17.1864 4.45597 20.5526 5.18397 23.856L0.198825 28.8412C-0.0662411 29.1062 -0.066309 29.5361 0.198825 29.8012C0.331324 29.9337 0.505094 30 0.678795 30C0.852497 30 1.02627 29.9337 1.15877 29.8012L6.14398 24.816C9.4475 25.5439 12.8136 25.5326 15.9035 24.7805C19.2287 23.9711 22.2318 22.2978 24.588 19.9415C26.2296 18.2999 27.5397 16.3443 28.4572 14.1845C28.4759 14.1492 28.4917 14.112 28.504 14.0732C28.882 13.1672 29.1912 12.2257 29.427 11.2571C30.2066 8.05455 30.1903 4.55527 29.3801 1.1367ZM20.6101 1.59345C22.7715 1.25433 25.0478 1.27931 27.3489 1.69113L20.6101 8.42992V1.59345ZM11.0185 6.37198C11.2263 6.16406 11.4389 5.96267 11.6566 5.76718V7.74537C11.6566 8.12019 11.9605 8.42415 12.3354 8.42415C12.7103 8.42415 13.0142 8.12019 13.0142 7.74537V4.67243C14.8639 3.33603 16.9805 2.38838 19.2524 1.85784V9.78756L13.0142 16.0258V10.2899C13.0142 9.91504 12.7103 9.61108 12.3354 9.61108C11.9605 9.61108 11.6566 9.91504 11.6566 10.2899V17.3834L6.33764 22.7023C5.22558 16.4877 6.93436 10.4561 11.0185 6.37198ZM23.628 18.9815C19.544 23.0657 13.5123 24.7744 7.29765 23.6623L16.4145 14.5455H26.7921C25.9878 16.1834 24.9282 17.6814 23.628 18.9815ZM27.388 13.1879H17.7721L28.3089 2.65114C28.9712 6.35256 28.6329 9.98903 27.388 13.1879Z"
      fill="#42B42F"></path>
  </g>
  <defs>
    <clipPath id="clip111">
      <rect width="30" height="30" fill="white"></rect>
    </clipPath>
  </defs>
</svg>