<svg width="41" height="41" viewBox="0 0 41 41" fill="none" xmlns="http://www.w3.org/2000/svg">
  <path d="M18.014 36.1123C21.6634 36.1157 25.2268 35.0038 28.2267 32.9256L34.4602 39.159C35.7357 40.4216 37.7917 40.4164 39.0608 39.1473C40.3299 37.8782 40.3351 35.8222 39.0726 34.5466L32.8391 28.3132C37.5336 21.49 36.9678 12.3444 31.4681 6.15192C25.9684 -0.040542 16.9535 -1.68226 9.62368 2.17377C2.2939 6.02979 -1.45976 14.3887 0.527933 22.4288C2.51562 30.4689 9.7318 36.1159 18.014 36.1123ZM38.1292 35.4899C38.8805 36.2429 38.8805 37.462 38.1292 38.215C37.3669 38.944 36.1658 38.944 35.4034 38.215L29.3061 32.1177C30.3088 31.3083 31.2226 30.3946 32.0319 29.3919L38.1292 35.4899ZM18.014 1.42286C27.2248 1.42286 34.6917 8.88972 34.6917 18.1005C34.6917 27.3112 27.2248 34.7781 18.014 34.7781C8.80319 34.7781 1.33633 27.3113 1.33633 18.1005C1.34664 8.89395 8.80742 1.43317 18.014 1.42286Z" fill="white"></path>
  <path d="M18.0144 33.4437C26.4883 33.4437 33.3578 26.5742 33.3578 18.1003C33.3578 9.62638 26.4883 2.75684 18.0144 2.75684C9.54044 2.75684 2.6709 9.62631 2.6709 18.1003C2.68048 26.5703 9.54434 33.4341 18.0144 33.4437ZM11.3433 30.4164C10.8832 30.1629 10.4378 29.8839 10.0091 29.5805V27.4397H11.3433V30.4164ZM16.6802 32.0427C16.2285 31.9994 15.7843 31.9334 15.346 31.848V26.7726H16.6802V32.0427ZM22.017 31.5204C21.5807 31.6508 21.1359 31.76 20.6828 31.848V22.1029H22.017V31.5204ZM27.3538 28.5131C26.9311 28.8956 26.4856 29.252 26.0196 29.5805V20.1016H27.3538V28.5131ZM18.0144 4.09104C23.4728 4.08469 28.4368 7.253 30.7295 12.2066C33.0223 17.1603 32.2253 22.9949 28.688 27.1522V20.1016C28.688 19.3647 28.0907 18.7674 27.3538 18.7674H26.0196C25.2828 18.7674 24.6854 19.3648 24.6854 20.1016V30.4164C24.2522 30.6503 23.8069 30.8609 23.3512 31.0474V22.1029C23.3512 21.366 22.7539 20.7687 22.017 20.7687H20.6828C19.9459 20.7687 19.3486 21.3661 19.3486 22.1029V32.0427C18.909 32.0841 18.4647 32.1094 18.0144 32.1094V26.7726C18.0144 26.0357 17.417 25.4384 16.6802 25.4384H15.346C14.6091 25.4384 14.0118 26.0358 14.0118 26.7726V31.5197C13.5594 31.3849 13.1141 31.2273 12.6776 31.0474V27.4397C12.6776 26.7028 12.0802 26.1055 11.3434 26.1055H10.0092C9.27232 26.1055 8.67501 26.7028 8.67501 27.4397V28.5123C8.18152 28.0738 7.71943 27.6012 7.2921 27.0981L11.3434 23.0481L12.3988 24.1041C12.9286 24.6079 13.7603 24.6079 14.2901 24.1041L20.6829 17.7113L21.4027 18.4318C21.9324 18.9356 22.7642 18.9356 23.2939 18.4318L26.6868 15.0409V16.0989C26.6868 16.4674 26.9855 16.766 27.3539 16.766C27.7224 16.766 28.021 16.4674 28.021 16.0989V13.4305C28.021 13.0621 27.7224 12.7634 27.3539 12.7634H24.6855C24.3171 12.7634 24.0184 13.0621 24.0184 13.4305C24.0184 13.799 24.3171 14.0976 24.6855 14.0976H25.7429L22.3507 17.4885L21.6288 16.766C21.0991 16.2622 20.2673 16.2622 19.7376 16.766L13.3447 23.1589L12.2893 22.1028C11.7596 21.599 10.9278 21.599 10.3981 22.1028L6.47352 26.0274C3.52219 21.7429 3.19089 16.175 5.61318 11.5707C8.03547 6.96643 12.8117 4.08569 18.0144 4.09104Z" fill="white"></path>
  <path d="M11.3425 16.0992C11.3425 15.7307 11.0438 15.4321 10.6754 15.4321C10.3069 15.4321 10.0083 15.7307 10.0083 16.0992C10.0102 17.6836 11.1247 19.0489 12.6767 19.368V19.4347C12.6767 19.8031 12.9753 20.1018 13.3438 20.1018C13.7122 20.1018 14.0109 19.8031 14.0109 19.4347V19.368C15.5654 19.0524 16.6826 17.6855 16.6826 16.0992C16.6826 14.5129 15.5655 13.1461 14.0109 12.8304V8.8838C14.8076 9.16547 15.3416 9.9173 15.3451 10.7624C15.3451 11.1308 15.6437 11.4295 16.0122 11.4295C16.3806 11.4295 16.6793 11.1308 16.6793 10.7624C16.6773 9.17796 15.5628 7.81269 14.0109 7.49355V7.42687C14.0109 7.05842 13.7122 6.75977 13.3438 6.75977C12.9753 6.75977 12.6767 7.05842 12.6767 7.42687V7.49355C11.1221 7.80919 10.0049 9.17604 10.0049 10.7624C10.0049 12.3487 11.122 13.7155 12.6767 14.0312V17.9785C11.8797 17.6967 11.3457 16.9445 11.3425 16.0992ZM15.3451 16.0992C15.3416 16.9443 14.8077 17.6961 14.0109 17.9778V14.2206C14.8076 14.5023 15.3416 15.2541 15.3451 16.0992ZM11.3425 10.7624C11.346 9.9173 11.8799 9.16547 12.6767 8.8838V12.641C11.8799 12.3593 11.346 11.6075 11.3425 10.7624Z" fill="white"></path>
</svg>