<svg width="40" height="40" viewBox="0 0 40 40" fill="none" xmlns="http://www.w3.org/2000/svg">
                        <path d="M27.9115 4.33891V0.904977C27.9115 0.405249 27.5064 0 27.0065 0H1.52509C1.02528 0 0.620117 0.405249 0.620117 0.904977V35.7798C0.620117 36.2795 1.02528 36.6848 1.52509 36.6848H1.6393C2.05478 38.5783 3.74446 40 5.76084 40H22.7709C24.7873 40 26.4769 38.5783 26.8923 36.6848H27.0065C27.5064 36.6848 27.9115 36.2795 27.9115 35.7798V29.0186C34.3129 28.5536 39.3792 23.1967 39.3792 16.6788C39.3792 10.161 34.3129 4.80398 27.9115 4.33891ZM27.0065 27.2415C26.5067 27.2415 26.1016 27.6468 26.1016 28.1465V34.8749H12.3034C11.8036 34.8749 11.3984 35.2802 11.3984 35.7799C11.3984 36.2796 11.8036 36.6849 12.3034 36.6849H25.0041C24.6455 37.5665 23.7798 38.19 22.7709 38.19H5.76084C4.75179 38.19 3.88618 37.5665 3.52754 36.6848H8.80111C9.30093 36.6848 9.70609 36.2795 9.70609 35.7798C9.70609 35.2801 9.30093 34.8748 8.80111 34.8748H2.43007V1.80995H26.1016V5.21113C26.1016 5.71086 26.5067 6.11611 27.0065 6.11611C32.8308 6.11611 37.5693 10.8545 37.5693 16.6788C37.5693 22.5032 32.8309 27.2415 27.0065 27.2415Z" fill="white"/>
                        <path d="M27.0065 7.9812C26.5067 7.9812 26.1016 8.38645 26.1016 8.88618V24.4714C26.1016 24.9712 26.5067 25.3764 27.0065 25.3764C31.8024 25.3764 35.7041 21.4747 35.7041 16.6788C35.7041 11.883 31.8024 7.9812 27.0065 7.9812ZM27.9115 23.5073V9.85043C31.2833 10.2949 33.8941 13.1877 33.8941 16.6788C33.8941 20.17 31.2834 23.0628 27.9115 23.5073Z" fill="white"/>
                        <path d="M20.3347 25.6729C19.9431 25.6729 19.6096 25.9215 19.4836 26.2697C19.1355 26.3957 18.8867 26.7292 18.8867 27.1208C18.8867 27.6205 19.2919 28.0258 19.7917 28.0258H20.3347C20.8345 28.0258 21.2397 27.6205 21.2397 27.1208V26.5778C21.2397 26.078 20.8345 25.6729 20.3347 25.6729Z" fill="white"/>
                        <path d="M16.7933 26.2158H15.7653C15.2655 26.2158 14.8604 26.6211 14.8604 27.1208C14.8604 27.6205 15.2655 28.0258 15.7653 28.0258H16.7933C17.2931 28.0258 17.6983 27.6205 17.6983 27.1208C17.6983 26.6211 17.2931 26.2158 16.7933 26.2158Z" fill="white"/>
                        <path d="M12.7669 26.2158H11.739C11.2391 26.2158 10.834 26.6211 10.834 27.1208C10.834 27.6205 11.2391 28.0258 11.739 28.0258H12.7669C13.2667 28.0258 13.6719 27.6205 13.6719 27.1208C13.6719 26.6211 13.2667 26.2158 12.7669 26.2158Z" fill="white"/>
                        <path d="M9.0481 26.2694C8.92204 25.9213 8.58855 25.6726 8.19697 25.6726C7.69715 25.6726 7.29199 26.0779 7.29199 26.5776V27.1206C7.29199 27.6203 7.69715 28.0255 8.19697 28.0255H8.73996C9.23977 28.0255 9.64493 27.6203 9.64493 27.1206C9.64493 26.729 9.39615 26.3955 9.0481 26.2694Z" fill="white"/>
                        <path d="M8.19697 19.8089C8.69679 19.8089 9.10195 19.4037 9.10195 18.9039V17.781C9.10195 17.2812 8.69679 16.876 8.19697 16.876C7.69715 16.876 7.29199 17.2812 7.29199 17.781V18.9039C7.29199 19.4037 7.69715 19.8089 8.19697 19.8089Z" fill="white"/>
                        <path d="M8.19697 15.4105C8.69679 15.4105 9.10195 15.0052 9.10195 14.5055V13.3825C9.10195 12.8828 8.69679 12.4775 8.19697 12.4775C7.69715 12.4775 7.29199 12.8828 7.29199 13.3825V14.5055C7.29199 15.0053 7.69715 15.4105 8.19697 15.4105Z" fill="white"/>
                        <path d="M8.19697 24.2074C8.69679 24.2074 9.10195 23.8021 9.10195 23.3024V22.1794C9.10195 21.6797 8.69679 21.2744 8.19697 21.2744C7.69715 21.2744 7.29199 21.6797 7.29199 22.1794V23.3024C7.29199 23.8022 7.69715 24.2074 8.19697 24.2074Z" fill="white"/>
                        <path d="M8.73996 8.65918H8.19697C7.69715 8.65918 7.29199 9.06443 7.29199 9.56416V10.1071C7.29199 10.6069 7.69715 11.0121 8.19697 11.0121C8.58855 11.0121 8.92204 10.7634 9.0481 10.4153C9.39615 10.2892 9.64493 9.95574 9.64493 9.56416C9.64493 9.06434 9.23977 8.65918 8.73996 8.65918Z" fill="white"/>
                        <path d="M12.7669 8.65918H11.739C11.2391 8.65918 10.834 9.06443 10.834 9.56416C10.834 10.0639 11.2391 10.4691 11.739 10.4691H12.7669C13.2667 10.4691 13.6719 10.0639 13.6719 9.56416C13.6719 9.06443 13.2667 8.65918 12.7669 8.65918Z" fill="white"/>
                        <path d="M16.7933 8.65918H15.7653C15.2655 8.65918 14.8604 9.06443 14.8604 9.56416C14.8604 10.0639 15.2655 10.4691 15.7653 10.4691H16.7933C17.2931 10.4691 17.6983 10.0639 17.6983 9.56416C17.6983 9.06443 17.2931 8.65918 16.7933 8.65918Z" fill="white"/>
                        <path d="M20.3347 8.65918H19.7917C19.2919 8.65918 18.8867 9.06443 18.8867 9.56416C18.8867 9.95574 19.1355 10.2893 19.4836 10.4153C19.6096 10.7634 19.9431 11.0121 20.3347 11.0121C20.8345 11.0121 21.2397 10.6069 21.2397 10.1071V9.56416C21.2397 9.06434 20.8345 8.65918 20.3347 8.65918Z" fill="white"/>
                        <path d="M20.3347 16.876C19.8348 16.876 19.4297 17.2812 19.4297 17.781V18.9039C19.4297 19.4037 19.8348 19.8089 20.3347 19.8089C20.8345 19.8089 21.2396 19.4037 21.2396 18.9039V17.781C21.2396 17.2812 20.8345 16.876 20.3347 16.876Z" fill="white"/>
                        <path d="M20.3347 12.4775C19.8348 12.4775 19.4297 12.8828 19.4297 13.3825V14.5055C19.4297 15.0052 19.8348 15.4105 20.3347 15.4105C20.8345 15.4105 21.2396 15.0052 21.2396 14.5055V13.3825C21.2396 12.8827 20.8345 12.4775 20.3347 12.4775Z" fill="white"/>
                        <path d="M20.3347 21.2744C19.8348 21.2744 19.4297 21.6797 19.4297 22.1794V23.3024C19.4297 23.8021 19.8348 24.2074 20.3347 24.2074C20.8345 24.2074 21.2396 23.8021 21.2396 23.3024V22.1794C21.2396 21.6797 20.8345 21.2744 20.3347 21.2744Z" fill="white"/>
                      </svg>         