<svg width="40" height="40" viewBox="0 0 40 40" fill="none" xmlns="http://www.w3.org/2000/svg">
  <g clip-path="url(#clip0_81_360)">
  <path d="M8.75 26.875C6.3375 26.875 4.375 28.8375 4.375 31.25C4.375 33.6625 6.3375 35.625 8.75 35.625C11.1625 35.625 13.125 33.6625 13.125 31.25C13.125 28.8375 11.1625 26.875 8.75 26.875ZM8.75 34.375C7.02688 34.375 5.625 32.9731 5.625 31.25C5.625 29.5269 7.02688 28.125 8.75 28.125C10.4731 28.125 11.875 29.5269 11.875 31.25C11.875 32.9731 10.4731 34.375 8.75 34.375Z" fill="white"></path>
  <path d="M8.75 29.375C7.71625 29.375 6.875 30.2162 6.875 31.25C6.875 32.2838 7.71625 33.125 8.75 33.125C9.78375 33.125 10.625 32.2838 10.625 31.25C10.625 30.2162 9.78375 29.375 8.75 29.375ZM8.75 31.875C8.40562 31.875 8.125 31.5944 8.125 31.25C8.125 30.9056 8.40562 30.625 8.75 30.625C9.09437 30.625 9.375 30.9056 9.375 31.25C9.375 31.5944 9.09437 31.875 8.75 31.875Z" fill="white"></path>
  <path d="M36.8662 12.7744L38.1488 11.4956L38.1475 11.2344C38.1325 8.83063 36.1656 6.875 33.75 6.875H33.4912L32.23 8.13625C30.6225 7.09375 28.8144 6.33438 26.875 5.93937V4.375C27.9088 4.375 28.75 3.53375 28.75 2.5C28.75 1.46625 27.9088 0.625 26.875 0.625H20.625C19.5912 0.625 18.75 1.46625 18.75 2.5C18.75 3.53375 19.5912 4.375 20.625 4.375V5.93937C18.6906 6.33375 16.8875 7.08938 15.2838 8.12813L14.2138 7.05813L14.0188 6.875H13.76C11.3563 6.875 9.38937 8.83063 9.375 11.2344L9.37375 11.4956L10.6425 12.7612C9.0525 15.2075 8.125 18.1213 8.125 21.25C8.125 21.8738 8.1775 22.5069 8.255 23.1394C7.50125 23.2119 6.85375 23.7156 6.61313 24.4475C6.55125 24.6363 6.41562 24.7838 6.24062 24.8512C6.15875 24.8831 6.0775 24.9163 5.99625 24.9519C5.82562 25.0256 5.62687 25.0175 5.45062 24.9281C4.70812 24.5525 3.81375 24.6956 3.225 25.2844L2.785 25.725C2.19625 26.3131 2.05312 27.2081 2.42875 27.9506C2.51812 28.1269 2.52625 28.3256 2.4525 28.4969C2.4175 28.5775 2.38375 28.6594 2.35188 28.7406C2.28437 28.9156 2.13625 29.0513 1.94687 29.1131C1.15625 29.3731 0.625 30.1069 0.625 30.9387V31.5613C0.625 32.3931 1.15625 33.1269 1.9475 33.3869C2.13625 33.4487 2.28375 33.5844 2.35125 33.7581C2.38313 33.8406 2.41625 33.9225 2.45188 34.0037C2.52563 34.1744 2.51688 34.3731 2.42813 34.5494C2.0525 35.2919 2.19562 36.1869 2.78437 36.775L3.22438 37.2156C3.81312 37.8044 4.7075 37.9469 5.45 37.5719C5.62563 37.4825 5.82437 37.4738 5.99625 37.5481C6.07687 37.5831 6.15875 37.6169 6.24 37.6488C6.415 37.7162 6.55062 37.8644 6.6125 38.0537C6.87313 38.8438 7.60687 39.375 8.43875 39.375H9.06125C9.89313 39.375 10.6269 38.8438 10.8869 38.0525C10.9488 37.8638 11.0844 37.7162 11.2581 37.6488C11.3406 37.6169 11.4225 37.5838 11.5037 37.5481C11.6737 37.4738 11.8731 37.4825 12.0494 37.5719C12.7919 37.9469 13.6869 37.8044 14.275 37.2156L14.7156 36.7756C15.3044 36.1875 15.4475 35.2925 15.0719 34.55C15.0138 34.435 15.0031 34.3119 15.0144 34.1919C17.5994 35.9425 20.5994 36.875 23.75 36.875C32.3656 36.875 39.375 29.8656 39.375 21.25C39.375 18.1275 38.4506 15.2181 36.8662 12.7744ZM34 8.13375C35.525 8.24937 36.7544 9.46688 36.8856 10.99L36.135 11.7387C35.3063 10.6625 34.3412 9.6975 33.2656 8.86875L34 8.13375ZM20 2.5C20 2.15562 20.2806 1.875 20.625 1.875H26.875C27.2194 1.875 27.5 2.15562 27.5 2.5C27.5 2.84437 27.2194 3.125 26.875 3.125H20.625C20.2806 3.125 20 2.84437 20 2.5ZM25.625 4.375V5.74125C25.01 5.6675 24.385 5.625 23.75 5.625C23.115 5.625 22.49 5.6675 21.875 5.74125V4.375H25.625ZM10.6369 10.99C10.7675 9.47 11.9919 8.255 13.5231 8.135L14.2475 8.85938C13.1706 9.68688 12.205 10.6519 11.3756 11.7269L10.6369 10.99ZM15.625 31.5613C15.625 31.8519 15.4394 32.1081 15.1625 32.1994C14.6175 32.3781 14.1875 32.7819 13.9838 33.3069C13.9575 33.3737 13.93 33.4406 13.9019 33.5056C13.6794 34.0181 13.6987 34.6037 13.9563 35.1131C14.0875 35.3725 14.0375 35.685 13.8319 35.8906L13.3913 36.3312C13.1856 36.5375 12.8731 36.5869 12.6137 36.4556C12.1044 36.1981 11.5188 36.1794 11.0069 36.4012C10.9412 36.4294 10.8744 36.4569 10.8063 36.4837C10.2819 36.6875 9.87875 37.1175 9.69938 37.6631C9.60875 37.9394 9.35188 38.125 9.06125 38.125H8.43875C8.14812 38.125 7.89187 37.9394 7.80062 37.6625C7.62187 37.1175 7.21812 36.6875 6.69312 36.4837C6.62625 36.4575 6.55937 36.43 6.49437 36.4019C6.25812 36.2988 6.00625 36.2475 5.75313 36.2475C5.4575 36.2475 5.16125 36.3175 4.88687 36.4556C4.62625 36.5869 4.315 36.5369 4.10938 36.3312L3.66875 35.8906C3.46312 35.685 3.41313 35.3725 3.54437 35.1131C3.80188 34.6037 3.82125 34.0181 3.59875 33.5062C3.57062 33.4406 3.54312 33.3738 3.51625 33.3056C3.3125 32.7812 2.8825 32.3781 2.33688 32.1988C2.06063 32.1088 1.875 31.8519 1.875 31.5613V30.9387C1.875 30.6481 2.06063 30.3919 2.33688 30.3006C2.8825 30.1219 3.3125 29.7181 3.51625 29.1931C3.5425 29.1262 3.57 29.0594 3.59812 28.9944C3.82063 28.4819 3.80125 27.8962 3.54375 27.3869C3.4125 27.1275 3.4625 26.8144 3.66812 26.6088L4.10812 26.1687C4.31375 25.9625 4.62563 25.9125 4.88625 26.0444C5.39563 26.3019 5.9825 26.3212 6.49312 26.0987C6.55937 26.07 6.62625 26.0425 6.69312 26.0169C7.2175 25.8125 7.62125 25.3825 7.80062 24.8375C7.89125 24.5606 8.14812 24.375 8.43875 24.375H9.06125C9.35188 24.375 9.60812 24.5606 9.69938 24.8375C9.87875 25.3825 10.2819 25.8125 10.8063 26.0163C10.8731 26.0425 10.94 26.07 11.0056 26.0981C11.5175 26.3206 12.1038 26.3006 12.6131 26.0437C12.8725 25.9119 13.185 25.9625 13.3913 26.1681L13.8312 26.6081C14.0369 26.8138 14.0869 27.1269 13.9556 27.3862C13.6981 27.8956 13.6788 28.4813 13.9013 28.9931C13.9294 29.0588 13.9569 29.1256 13.9838 29.1937C14.1875 29.7181 14.6175 30.1213 15.1631 30.3006C15.4394 30.3912 15.625 30.6481 15.625 30.9387V31.5613ZM11.9069 20.625C12.0538 17.8225 13.1719 15.2794 14.9363 13.32L16.6794 15.0631L17.5631 14.1794L15.82 12.4363C17.7794 10.6713 20.3225 9.55375 23.125 9.40687V11.875H24.375V9.40687C27.1775 9.55375 29.7206 10.6719 31.68 12.4363L29.9369 14.1794L30.8206 15.0631L32.5638 13.32C34.3288 15.2794 35.4463 17.8225 35.5931 20.625H33.125V21.875H35.5931C35.4463 24.6775 34.3281 27.2206 32.5638 29.18L30.8206 27.4369L29.9369 28.3206L31.68 30.0638C29.7206 31.8288 27.1775 32.9463 24.375 33.0931V30.625H23.125V33.1C20.8713 32.9825 18.7275 32.2306 16.8725 30.9044C16.8631 30.3931 16.655 29.9212 16.3081 29.5762L17.5631 28.3212L16.6794 27.4375L15.2413 28.8756C15.2087 28.8319 15.1694 28.7925 15.1494 28.7419C15.1175 28.6594 15.0844 28.5775 15.0487 28.4963C14.975 28.3256 14.9837 28.1269 15.0725 27.9506C15.4481 27.2081 15.305 26.3131 14.7162 25.725L14.6156 25.625H33.125V24.375H30.625V18.125H26.875V24.375H25.625V14.375H21.875V24.375H20.625V16.875H16.875V24.375H14.375V25.3844L14.275 25.2844C13.7856 24.795 13.0863 24.6187 12.4369 24.7869C12.135 23.83 11.9563 22.8556 11.9031 21.8744H14.375V20.6244L11.9069 20.625ZM18.125 24.375V18.125H19.375V24.375H18.125ZM23.125 24.375V15.625H24.375V24.375H23.125ZM28.125 24.375V19.375H29.375V24.375H28.125ZM23.75 35.625C20.91 35.625 18.2019 34.8037 15.8569 33.2556C16.2469 33.0481 16.5456 32.7131 16.7156 32.315C18.8244 33.665 21.2356 34.375 23.75 34.375C30.9875 34.375 36.875 28.4875 36.875 21.25C36.875 14.0125 30.9875 8.125 23.75 8.125C16.5125 8.125 10.625 14.0125 10.625 21.25C10.625 22.4281 10.7906 23.6013 11.1131 24.7513C11.0138 24.6731 10.9288 24.5756 10.8869 24.4462C10.6763 23.8056 10.1525 23.3412 9.52 23.1862C9.43125 22.5375 9.375 21.8881 9.375 21.25C9.375 13.3237 15.8237 6.875 23.75 6.875C31.6763 6.875 38.125 13.3237 38.125 21.25C38.125 29.1763 31.6763 35.625 23.75 35.625Z" fill="white"></path>
  </g>
  <defs>
  <clipPath id="clip0_81_360">
  <rect width="40" height="40" fill="white"></rect>
  </clipPath>
  </defs>
</svg>