<svg width="40" height="40" viewBox="0 0 40 40" fill="none" xmlns="http://www.w3.org/2000/svg">
                  <path d="M20.0002 0C12.0123 0 5.51367 6.49859 5.51367 14.4864C5.51367 24.3995 18.4777 38.9526 19.0296 39.5673C19.548 40.1447 20.4532 40.1437 20.9707 39.5673C21.5227 38.9526 34.4866 24.3995 34.4866 14.4864C34.4865 6.49859 27.988 0 20.0002 0ZM20.0002 36.6976C15.6371 31.5149 8.12242 21.29 8.12242 14.4866C8.12242 7.93703 13.4507 2.60875 20.0002 2.60875C26.5496 2.60875 31.8779 7.93703 31.8779 14.4865C31.8778 21.2902 24.3643 31.5133 20.0002 36.6976Z" fill="white"/>
                  <path d="M20.0004 7.19797C15.9814 7.19797 12.7119 10.4676 12.7119 14.4865C12.7119 18.5054 15.9815 21.775 20.0004 21.775C24.0192 21.775 27.2887 18.5054 27.2887 14.4865C27.2887 10.4676 24.0192 7.19797 20.0004 7.19797ZM20.0004 19.1662C17.4199 19.1662 15.3207 17.067 15.3207 14.4865C15.3207 11.906 17.42 9.80672 20.0004 9.80672C22.5807 9.80672 24.68 11.906 24.68 14.4865C24.68 17.067 22.5807 19.1662 20.0004 19.1662Z" fill="white"/>
                </svg>    