<svg width="45" height="45" viewBox="0 0 45 45" fill="none" xmlns="http://www.w3.org/2000/svg">
  <g clip-path="url(#clip0_81_2315)">
  <path d="M23.3789 35.6836C23.3789 36.1691 22.9855 36.5625 22.5 36.5625C22.0145 36.5625 21.6211 36.1691 21.6211 35.6836C21.6211 35.1981 22.0145 34.8047 22.5 34.8047C22.9855 34.8047 23.3789 35.1981 23.3789 35.6836Z" fill="white"></path>
  <path d="M42.0996 27.7734C42.0996 24.8655 39.7341 22.5 36.8262 22.5C33.9182 22.5 31.5527 24.8655 31.5527 27.7734C31.5527 30.6814 33.9182 33.0469 36.8262 33.0469C39.7341 33.0469 42.0996 30.6814 42.0996 27.7734ZM36.8262 31.2891C34.8878 31.2891 33.3105 29.7118 33.3105 27.7734C33.3105 25.835 34.8878 24.2578 36.8262 24.2578C38.7646 24.2578 40.3418 25.835 40.3418 27.7734C40.3418 29.7118 38.7646 31.2891 36.8262 31.2891Z" fill="white"></path>
  <path d="M36.8262 33.0469C34.6114 33.0469 32.4028 33.9663 30.8984 35.457C28.9181 32.8546 25.8646 31.2891 22.5 31.2891C19.2779 31.2891 16.1557 32.7592 14.102 35.457C12.5972 33.9666 10.3889 33.0469 8.17383 33.0469C3.74325 33.0469 0 36.6693 0 40.957V42.7148C0 43.2003 0.393448 43.5938 0.878906 43.5938H44.1211C44.6066 43.5938 45 43.2003 45 42.7148V40.957C45 36.6693 41.2568 33.0469 36.8262 33.0469ZM1.75781 40.957C1.75781 37.622 4.69597 34.8047 8.17383 34.8047C10.0769 34.8047 11.9641 35.6479 13.1324 36.9882C12.36 38.4803 11.9531 40.1434 11.9531 41.8359H1.75781V40.957ZM22.5 33.0469C27.3906 33.0469 31.2891 37.015 31.2891 41.8359H13.7109C13.7109 36.9508 17.689 33.0469 22.5 33.0469ZM43.2422 41.8359H33.0469C33.0469 40.1434 32.64 38.4803 31.8676 36.9882C33.0359 35.6479 34.9231 34.8047 36.8262 34.8047C40.304 34.8047 43.2422 37.622 43.2422 40.957V41.8359Z" fill="white"></path>
  <path d="M13.4473 27.7734C13.4473 24.8655 11.0818 22.5 8.17383 22.5C5.26588 22.5 2.90039 24.8655 2.90039 27.7734C2.90039 30.6814 5.26588 33.0469 8.17383 33.0469C11.0818 33.0469 13.4473 30.6814 13.4473 27.7734ZM8.17383 31.2891C6.23543 31.2891 4.6582 29.7118 4.6582 27.7734C4.6582 25.835 6.23543 24.2578 8.17383 24.2578C10.1122 24.2578 11.6895 25.835 11.6895 27.7734C11.6895 29.7118 10.1122 31.2891 8.17383 31.2891Z" fill="white"></path>
  <path d="M29.5312 24.2578C29.5312 20.3807 26.3771 17.2266 22.5 17.2266C18.6229 17.2266 15.4688 20.3807 15.4688 24.2578C15.4688 28.135 18.6229 31.2891 22.5 31.2891C26.3771 31.2891 29.5312 28.135 29.5312 24.2578ZM22.5 29.5312C19.5921 29.5312 17.2266 27.1658 17.2266 24.2578C17.2266 21.3499 19.5921 18.9844 22.5 18.9844C25.4079 18.9844 27.7734 21.3499 27.7734 24.2578C27.7734 27.1658 25.4079 29.5312 22.5 29.5312Z" fill="white"></path>
  <path d="M29.4561 6.51798C29.3528 6.19972 29.0778 5.96798 28.7465 5.91991L24.9555 5.36957L23.2581 1.89926C23.1108 1.59748 22.8046 1.40625 22.4688 1.40625C22.133 1.40625 21.8268 1.59748 21.6792 1.89892L19.9821 5.36957L16.1911 5.91957C15.8598 5.96764 15.5848 6.19972 15.4815 6.51798C15.3782 6.83624 15.4643 7.1854 15.704 7.41886L18.4492 10.0944L17.8013 13.8726C17.7447 14.2022 17.8803 14.5356 18.1512 14.732C18.4203 14.9277 18.7788 14.9555 19.0768 14.7989L22.4688 13.0154L25.8622 14.7989C26.1581 14.9548 26.5169 14.9287 26.7878 14.732C27.0583 14.5353 27.194 14.2022 27.1373 13.8723L26.4888 10.0944L29.2336 7.41886C29.4733 7.1854 29.5594 6.83624 29.4561 6.51798ZM24.9304 9.15813C24.7234 9.36001 24.6286 9.65115 24.6777 9.9361L25.1031 12.4146L22.8777 11.2445C22.6216 11.1099 22.3157 11.1099 22.0596 11.2445L19.8348 12.4146L20.2599 9.9361C20.3086 9.6508 20.2139 9.36001 20.0068 9.15813L18.2065 7.40341L20.6938 7.04224C20.9815 7.00069 21.2298 6.81942 21.3571 6.5585L22.4688 4.2857L23.5801 6.5585C23.7079 6.81976 23.9561 7.00069 24.2434 7.04224L26.7312 7.40341L24.9304 9.15813Z" fill="white"></path>
  <path d="M42.5922 13.1053C42.4888 12.7871 42.2138 12.5553 41.8825 12.5072L39.3141 12.1341L38.1657 9.80633C38.0177 9.50626 37.7125 9.31641 37.3778 9.31641C37.3778 9.31641 37.3778 9.31641 37.3775 9.31641C37.0431 9.31641 36.7375 9.50626 36.5895 9.80633L35.4404 12.1341L32.8717 12.5072C32.5407 12.5553 32.2657 12.7871 32.1624 13.1053C32.0587 13.4236 32.1449 13.7727 32.3845 14.0062L34.2429 15.8186L33.8041 18.3764C33.7478 18.7059 33.8831 19.039 34.154 19.2357C34.4245 19.4324 34.7833 19.4585 35.0792 19.303L37.3775 18.0955L39.675 19.303C39.9709 19.4585 40.33 19.4324 40.6006 19.2357C40.8711 19.0393 41.0064 18.7059 40.9501 18.3764L40.5113 15.8186L42.3701 14.0062C42.6097 13.7727 42.6955 13.4236 42.5922 13.1053ZM38.9536 14.8827C38.7463 15.0846 38.6519 15.3754 38.701 15.6603L38.9166 16.9183L37.7867 16.3247C37.5306 16.1901 37.2247 16.1901 36.9689 16.3247L35.838 16.9186L36.0539 15.6603C36.1027 15.3754 36.0083 15.0846 35.8013 14.8827L34.8866 13.9907L36.1504 13.8074C36.4367 13.7659 36.6843 13.586 36.8123 13.3268L37.3775 12.1818L37.9422 13.3264C38.0703 13.586 38.3178 13.7659 38.6041 13.8074L39.8679 13.9907L38.9536 14.8827Z" fill="white"></path>
  <path d="M12.7094 13.1053C12.606 12.7871 12.331 12.5553 11.9997 12.5072L9.43132 12.1341L8.28291 9.80633C8.13494 9.50626 7.82972 9.31641 7.49498 9.31641C7.16024 9.31641 6.85469 9.50626 6.70671 9.80633L5.55761 12.1341L2.98887 12.5072C2.65791 12.5553 2.38291 12.7871 2.27957 13.1053C2.17588 13.4236 2.26206 13.7727 2.5017 14.0062L4.3601 15.8186L3.92168 18.3764C3.86503 18.7059 4.00064 19.039 4.27118 19.2357C4.54172 19.4324 4.90049 19.4585 5.19678 19.303L7.49464 18.0955L9.79216 19.303C10.0902 19.4595 10.4486 19.4314 10.7178 19.2357C10.9883 19.0393 11.1239 18.7059 11.0673 18.3764L10.6285 15.8186L12.4872 14.0062C12.7269 13.7727 12.8127 13.4236 12.7094 13.1053ZM9.07049 14.8827C8.86347 15.0846 8.76905 15.3754 8.81781 15.6603L9.03376 16.9183L7.90354 16.3247C7.64776 16.1901 7.34186 16.1901 7.08609 16.3247L5.95484 16.9186L6.17079 15.6603C6.21988 15.3754 6.12512 15.0846 5.9181 14.8827L5.00349 13.9907L6.2676 13.8074C6.55359 13.7659 6.80113 13.586 6.92919 13.3268L7.4943 12.1818L8.05906 13.3264C8.18712 13.586 8.43466 13.7659 8.72099 13.8074L9.98476 13.9907L9.07049 14.8827Z" fill="white"></path>
  <path d="M26.3519 35.9556C25.9461 35.6888 25.4012 35.8018 25.1348 36.2076C24.868 36.6131 24.981 37.1579 25.3868 37.4247C26.1994 37.9585 26.849 38.7029 27.2651 39.577C27.4732 40.0147 27.9971 40.2018 28.4362 39.9927C28.8746 39.7843 29.0607 39.2597 28.8523 38.8217C28.2982 37.6571 27.4333 36.6659 26.3519 35.9556Z" fill="white"></path>
  </g>
  <defs>
  <clipPath id="clip0_81_2315">
  <rect width="45" height="45" fill="white"></rect>
  </clipPath>
  </defs>
</svg>