<svg width="60" height="61" viewBox="0 0 60 61" fill="none" xmlns="http://www.w3.org/2000/svg">
  <g clip-path="url(#clip0_526_306)">
    <path
      d="M4.01404 58.5395C4.01404 55.6327 4.01404 52.8099 4.01404 49.9703C4.01404 48.7605 4.28056 48.4749 5.46323 48.4749C7.81193 48.4749 10.1606 48.4749 12.526 48.4749C13.742 48.4749 14.0085 48.7437 14.0085 50.0039C14.0085 52.6083 14.0085 55.2126 14.0085 57.817C14.0085 58.0354 14.0085 58.2706 14.0085 58.5227C15.3411 58.5227 16.6237 58.5227 18.0063 58.5227C18.0063 58.2874 18.0063 58.0522 18.0063 57.8002C18.0063 52.4906 18.0063 47.1811 18.0063 41.8548C18.0063 40.6954 18.2894 40.4097 19.4388 40.3929C21.8541 40.3929 24.2695 40.3929 26.6848 40.3929C27.6676 40.3929 28.0007 40.729 28.0007 41.7035C28.0007 47.0299 28.0007 52.373 28.0007 57.6994C28.0007 57.9514 28.0007 58.2034 28.0007 58.4891C29.3333 58.4891 30.6326 58.4891 31.9985 58.4891C31.9985 58.2202 31.9985 57.985 31.9985 57.733C31.9985 49.7519 31.9985 41.7707 31.9985 33.7896C31.9985 32.5967 32.2817 32.311 33.4643 32.311C35.863 32.311 38.245 32.311 40.6437 32.311C41.6598 32.311 41.9763 32.6471 41.9763 33.672C41.9763 41.6699 41.9763 49.6678 41.9763 57.6826C41.9763 57.9346 41.9763 58.1866 41.9763 58.4891C43.3089 58.4891 44.5915 58.4891 45.9741 58.4891C45.9741 58.2538 45.9741 58.0018 45.9741 57.7666C45.9741 47.0971 45.9741 36.4276 45.9741 25.7581C45.9741 24.5483 46.2406 24.2627 47.4233 24.2627C49.8219 24.2627 52.2039 24.2627 54.6026 24.2627C55.652 24.2627 55.9685 24.5819 55.9685 25.6573C55.9685 26.8167 55.9685 27.9592 55.9685 29.1186C55.9685 29.8747 55.602 30.2947 54.9691 30.2947C54.3361 30.2947 53.9696 29.8747 53.9696 29.1186C53.9696 28.1944 53.9696 27.2703 53.9696 26.3126C51.9707 26.3126 50.0052 26.3126 48.0063 26.3126C48.0063 37.0325 48.0063 47.7356 48.0063 58.4891C49.9552 58.4891 51.9208 58.4891 53.9696 58.4891C53.9696 58.2538 53.9696 58.0186 53.9696 57.7666C53.9696 49.8695 53.9696 41.9724 53.9696 34.0753C53.9696 33.924 53.9696 33.7896 53.9696 33.6384C53.9696 32.7815 54.3194 32.3278 54.9691 32.3278C55.6187 32.3278 55.9685 32.7815 55.9685 33.6384C55.9685 41.6531 55.9685 49.6846 55.9685 57.6994C55.9685 57.9514 55.9685 58.2034 55.9685 58.5395C56.9679 58.5395 57.9507 58.5227 58.9169 58.5395C59.6831 58.5563 60.1828 59.1444 59.933 59.8165C59.8164 60.1189 59.4499 60.3373 59.1501 60.5222C58.9835 60.623 58.7003 60.5558 58.4671 60.5558C39.4777 60.5558 20.4882 60.5558 1.49877 60.5558C1.33219 60.5558 1.16562 60.5558 0.999046 60.5558C0.366064 60.5222 -0.000398805 60.1693 -0.0170562 59.598C-0.0337136 58.9931 0.349407 58.5731 0.982388 58.5563C1.84857 58.5227 2.73142 58.5563 3.5976 58.5395C3.73086 58.5731 3.83081 58.5563 4.01404 58.5395ZM34.0307 34.3945C34.0307 42.4764 34.0307 50.508 34.0307 58.5059C36.0462 58.5059 37.9952 58.5059 39.9441 58.5059C39.9441 50.4408 39.9441 42.426 39.9441 34.3945C37.9785 34.3945 36.0296 34.3945 34.0307 34.3945ZM20.0385 42.4596C20.0385 47.8532 20.0385 53.1963 20.0385 58.5395C22.0374 58.5395 24.0029 58.5395 25.9518 58.5395C25.9518 53.1627 25.9518 47.8196 25.9518 42.4596C23.9696 42.4596 22.0374 42.4596 20.0385 42.4596ZM11.9763 50.5416C9.96073 50.5416 7.99516 50.5416 6.0629 50.5416C6.0629 53.2299 6.0629 55.8847 6.0629 58.5227C8.06179 58.5227 10.0107 58.5227 11.9763 58.5227C11.9763 55.8679 11.9763 53.2299 11.9763 50.5416Z"
      fill="#42B42F" />
    <path
      d="M52.6035 6.13288C50.7712 6.13288 49.0055 6.14968 47.2398 6.11608C46.89 6.11608 46.4403 5.93125 46.2237 5.67922C46.0405 5.47759 46.0072 4.92311 46.1571 4.72148C46.357 4.43584 46.8067 4.16701 47.1565 4.1502C48.8056 4.0998 50.438 4.1166 52.0871 4.1166C53.0033 4.1166 53.9194 4.0998 54.8356 4.1166C55.6018 4.1334 55.985 4.50305 55.985 5.29276C55.985 7.84672 55.985 10.4175 55.985 12.9714C55.985 13.7275 55.6185 14.1644 55.0022 14.1644C54.3858 14.1644 54.0027 13.7443 53.9861 12.9882C53.9861 11.4928 53.9861 10.0142 53.9861 8.51881C53.9861 8.31718 53.9861 8.11556 53.9861 7.82992C52.7701 9.20771 51.654 10.5351 50.4714 11.7953C42.9922 19.81 34.5136 26.4637 24.4525 30.8995C18.0061 33.7391 11.2931 35.3186 4.24703 35.369C3.48079 35.369 3.08102 35.1001 3.01439 34.512C2.9311 33.8063 3.34753 33.4199 4.14709 33.3527C6.49578 33.1679 8.84448 33.0838 11.1599 32.7478C17.4897 31.8069 23.3697 29.5385 28.9333 26.4133C37.9117 21.3726 45.5741 14.7189 52.1704 6.78817C52.287 6.63695 52.4036 6.48573 52.5202 6.35131C52.5369 6.31771 52.5535 6.2841 52.6035 6.13288Z"
      fill="#42B42F" />
    <path
      d="M13.0424 0C19.822 0.117616 25.3855 5.34315 25.9686 12.2321C26.5349 18.7682 21.8542 24.8843 15.3744 26.0772C7.0624 27.6063 -0.41678 20.9693 0.0329702 12.4673C0.149572 10.0814 0.899156 7.8635 2.23175 5.86402C2.51492 5.42716 2.86473 5.14152 3.43108 5.29274C4.14735 5.49437 4.38055 6.21687 3.94746 6.90576C3.11459 8.19954 2.53158 9.59414 2.21509 11.1232C0.982443 17.3064 5.34668 23.4057 11.5766 24.1786C18.3062 25.0187 24.1196 19.81 23.9697 12.9882C23.8697 8.77082 21.9541 5.52797 18.2895 3.49489C14.6082 1.445 10.8769 1.64663 7.22897 3.76373C7.04574 3.86454 6.87917 3.99896 6.69594 4.09977C6.12958 4.41902 5.59655 4.3014 5.28006 3.79733C4.98022 3.31006 5.08017 2.80599 5.59655 2.43634C6.91248 1.51221 8.34502 0.840117 9.89416 0.487268C10.9269 0.268838 11.993 0.151221 13.0424 0Z"
      fill="#42B42F" />
    <path
      d="M13.9919 6.06553C14.7248 6.5864 15.3911 6.97285 15.9408 7.49373C16.6404 8.16582 16.9569 9.05634 16.9902 10.0477C17.0069 10.7198 16.6571 11.1398 16.0741 11.1734C15.4744 11.2238 15.0746 10.8374 14.9913 10.1317C14.8747 9.00594 14.1751 8.23303 13.1757 8.14902C12.1596 8.08181 11.2934 8.7371 11.0602 9.72844C10.7604 11.0222 11.6765 12.1312 13.109 12.1984C14.9913 12.2824 16.5072 13.5594 16.9069 15.3572C17.34 17.2895 16.3572 19.1714 14.4916 19.9443C14.1085 20.0955 13.9752 20.2803 14.0085 20.6668C14.0419 20.902 14.0252 21.1372 14.0085 21.3557C13.9419 21.9269 13.5421 22.2966 13.0091 22.263C12.4594 22.2294 11.993 21.9269 12.0596 21.3893C12.1762 20.3979 11.7265 20.0115 10.9269 19.5914C9.71094 18.9361 9.11127 17.7768 9.04464 16.3822C9.01133 15.6597 9.36113 15.2396 9.97746 15.206C10.6104 15.1724 10.9769 15.5252 11.0435 16.2477C11.1601 17.4743 11.9763 18.2808 13.109 18.2472C14.1751 18.2136 15.0247 17.3231 15.0413 16.2477C15.058 15.1052 14.2084 14.2651 12.9591 14.2147C10.9269 14.1139 9.4111 12.7697 9.0613 10.8038C8.74481 9.02274 9.76091 7.17448 11.5266 6.45198C11.8931 6.30076 12.0596 6.13274 12.0097 5.72948C11.9763 5.47744 11.9763 5.22541 12.0263 4.97337C12.1096 4.4189 12.4428 4.11646 13.0091 4.11646C13.5588 4.11646 13.9253 4.4189 13.9919 4.97337C14.0252 5.39343 13.9919 5.81349 13.9919 6.06553Z"
      fill="#42B42F" />
  </g>
  <defs>
    <clipPath id="clip0_526_306">
      <rect width="60" height="60.6061" fill="white" />
    </clipPath>
  </defs>
</svg> 