<svg width="60" height="60" viewBox="0 0 60 60" fill="none" xmlns="http://www.w3.org/2000/svg">
  <g clip-path="url(#clip0_526_249)">
    <path
      d="M0 50.1562C0.5 48.6719 1.17188 47.2656 2.20312 46.0625C3.3125 44.7656 4.64062 43.7812 6.21875 43.1094C6.35938 43.0469 6.48438 42.9844 6.6875 42.9063C5.17188 41.5625 4.39062 39.9531 4.5 37.9688C4.59375 36.3594 5.25 35 6.46875 33.9219C8.78125 31.8594 12.3438 31.9844 14.5312 34.2031C16.6094 36.3125 17.0625 40.1875 14.0156 42.9219C15.8437 43.625 17.3906 44.7187 18.625 46.2187C21.4375 43.0937 21.7969 42.7969 25.7344 41.0313C21.2969 37.7031 21.9375 32.1719 24.7188 29.4531C27.6875 26.5625 32.3438 26.5625 35.3281 29.4531C38.1562 32.2031 38.7188 37.7344 34.3125 41.0313C38.4688 42.8594 38.8594 43.3594 41.4219 46.2187C42.6562 44.7344 44.1719 43.6406 46.0469 42.9219C44.4062 41.4688 43.6406 39.7031 43.8906 37.5781C44.0625 36.0781 44.7656 34.8437 45.9062 33.8594C48.1719 31.9062 51.5781 32 53.75 34.0937C55.0156 35.3125 55.6094 36.8281 55.5625 38.5625C55.5156 40.0781 55.125 40.7969 53.4844 42.8594C54.4219 43.4375 55.4063 43.9375 56.2812 44.5938C58.0938 45.9688 59.2969 47.7812 59.9375 49.9687C59.9531 50.0469 60.0156 50.0938 60.0469 50.1719C60.0469 50.5625 60.0469 50.9531 60.0469 51.3438C59.1562 53.4375 58.4375 53.9062 56.125 53.9062C52.2969 53.9062 48.4688 53.9062 44.6406 53.9062C44.4062 53.9062 44.1875 53.9062 43.8906 53.9062C43.8906 54.5781 43.9062 55.1875 43.8906 55.7812C43.8125 57.6875 42.5781 59.2656 40.7812 59.8125C40.5938 59.875 40.4219 59.9375 40.25 60C33.4531 60 26.6562 60 19.8594 60C19.8281 59.9688 19.8125 59.9375 19.7812 59.9219C17.2656 59.1562 16.2031 57.7344 16.2031 55.125C16.2031 54.7187 16.2031 54.3281 16.2031 53.8906C15.875 53.8906 15.6406 53.8906 15.4062 53.8906C11.3906 53.8906 7.35938 53.8906 3.34375 53.8906C1.79688 53.8906 0.65625 53.0469 0.1875 51.5781C0.15625 51.4844 0.109375 51.4062 0.0625 51.3281C0 50.9375 0 50.5469 0 50.1562ZM29.9531 58.125C33.0938 58.125 36.2344 58.125 39.3906 58.125C40.7188 58.125 41.8438 57.2344 41.9375 56C42.0156 54.8437 42.0781 53.6406 41.9062 52.5C41.2188 47.5938 37.375 43.5625 32.5625 42.5625C27.5312 41.5156 22.4688 43.6406 19.7812 47.9062C18.3438 50.1875 17.8594 52.6719 18 55.3438C18.0938 57.1094 19.0469 58.125 20.8281 58.125C23.8594 58.125 26.9062 58.125 29.9531 58.125ZM30.0156 29.1406C26.9063 29.125 24.375 31.625 24.3594 34.7344C24.3437 37.8438 26.8438 40.375 29.9375 40.4063C33.0156 40.4375 35.5938 37.9062 35.625 34.8281C35.6562 31.6875 33.1562 29.1562 30.0156 29.1406ZM43.9062 52C43.875 52 43.9375 52.0156 44 52.0156C48.25 52.0156 52.5156 52.0312 56.7656 52.0156C57.7969 52.0156 58.3594 51.2031 58.0312 50.2188C57.2031 47.7812 55.625 46 53.2969 44.9375C49.625 43.25 45.1406 44.375 42.7344 47.5938C42.6094 47.7656 42.5156 48.0625 42.5781 48.25C42.9688 49.4687 43.4219 50.6875 43.9062 52ZM16.1094 52.0156C16.5469 50.7656 16.9219 49.5781 17.3906 48.4219C17.5312 48.0625 17.5312 47.8281 17.2969 47.5469C15.0937 44.8594 12.25 43.7188 8.82812 44.3125C5.53125 44.875 3.28125 46.8281 2.09375 49.9687C1.59375 51.2656 2.14062 52.0156 3.53125 52.0156C7.57812 52.0156 11.6094 52.0156 15.6562 52.0156C15.8281 52.0156 16.0156 52.0156 16.1094 52.0156ZM45.6875 38.2969C45.6875 40.5 47.4688 42.2969 49.6562 42.2969C51.8281 42.2969 53.6406 40.5 53.6562 38.3125C53.6562 36.125 51.8594 34.3281 49.6719 34.3281C47.4531 34.3281 45.6875 36.0938 45.6875 38.2969ZM14.3125 38.3281C14.3281 36.1094 12.5625 34.3437 10.375 34.3281C8.17188 34.3125 6.375 36.0781 6.35938 38.2812C6.34375 40.4531 8.14062 42.2813 10.3281 42.2969C12.5 42.3125 14.2969 40.5156 14.3125 38.3281Z"
      fill="#42B42F" />
    <path
      d="M0 14.0625C0.421875 13.3438 1.0625 13.1406 1.85937 13.125C3.17187 13.1094 4.46875 13 5.78125 12.9531C6.125 12.9375 6.29687 12.8125 6.40625 12.4844C6.89062 11.1719 7.40625 9.85938 7.89062 8.54688C8.125 7.90625 8.5 7.45312 9.23437 7.4375C9.85937 7.42187 10.2969 7.78125 10.5781 8.53125C11.0781 9.84375 11.5937 11.1563 12.0625 12.4688C12.1875 12.8125 12.375 12.9531 12.7344 12.9688C14.1406 13.0156 15.5469 13.0937 16.9531 13.1562C17.5781 13.1875 18.1094 13.375 18.375 14C18.625 14.5781 18.4687 15.1563 17.9062 15.6094C16.7969 16.5312 15.6719 17.4375 14.5312 18.3125C14.1875 18.5781 14.1562 18.8125 14.2656 19.2031C14.6562 20.5469 15.0156 21.9062 15.375 23.2656C15.5625 24 15.4219 24.5469 14.9062 24.875C14.3281 25.2656 13.7812 25.1562 13.2187 24.7812C12.0312 23.9844 10.8281 23.2188 9.65625 22.4375C9.375 22.25 9.15625 22.25 8.875 22.4375C7.6875 23.2344 6.48437 24 5.3125 24.7812C4.76562 25.1406 4.20312 25.2656 3.625 24.875C3.09375 24.5156 2.95312 24 3.17187 23.2031C3.51562 21.9219 3.82812 20.6406 4.23437 19.375C4.40625 18.8125 4.28125 18.5 3.82812 18.1562C2.82812 17.4062 1.85937 16.6094 0.90625 15.8125C0.578125 15.5469 0.328125 15.2031 0.046875 14.8906C0 14.6094 0 14.3438 0 14.0625ZM5.25 22.5469C6.26562 21.8906 7.20312 21.3437 8.04687 20.7031C8.89062 20.0781 9.625 20.125 10.4375 20.7188C11.2812 21.3438 12.1875 21.875 13.2031 22.5312C12.875 21.3281 12.625 20.2656 12.2969 19.2344C12.0156 18.3281 12.2031 17.6719 13 17.0938C13.875 16.4688 14.6875 15.75 15.6719 14.9688C14.3125 14.8906 13.125 14.8125 11.9531 14.7812C11.2656 14.75 10.8125 14.4375 10.5781 13.7969C10.4687 13.4844 10.3437 13.1719 10.2187 12.875C9.90625 12.0625 9.59375 11.25 9.23437 10.2969C8.76562 11.5156 8.34375 12.5781 7.96875 13.6563C7.70312 14.4063 7.21875 14.7812 6.40625 14.7969C5.26562 14.8125 4.125 14.9063 2.82812 14.9844C3.85937 15.8281 4.76562 16.5625 5.67187 17.2812C6.23437 17.7344 6.4375 18.2656 6.23437 18.9844C5.89062 20.1094 5.60937 21.2656 5.25 22.5469Z"
      fill="#42B42F" />
    <path
      d="M60 14.8905C59.7031 15.2187 59.4375 15.578 59.0937 15.8593C58.1719 16.6405 57.2344 17.4218 56.2656 18.1249C55.7656 18.4843 55.625 18.8124 55.8281 19.4218C56.2187 20.6249 56.5156 21.8593 56.8437 23.078C57.0781 23.9687 56.9687 24.4843 56.4219 24.8593C55.7969 25.2812 55.2187 25.0937 54.6406 24.703C53.5156 23.9374 52.3437 23.2187 51.2187 22.453C50.8906 22.2343 50.6562 22.2343 50.3437 22.453C49.2031 23.2343 48.0156 23.9687 46.875 24.7343C46.3125 25.1093 45.7344 25.2655 45.1406 24.8593C44.6094 24.4999 44.4844 23.953 44.7031 23.1249C45.0625 21.8124 45.3906 20.4843 45.7969 19.1718C45.9219 18.7343 45.8281 18.5155 45.4844 18.2499C44.3906 17.4062 43.3281 16.5155 42.2344 15.6562C41.7187 15.2499 41.4375 14.7499 41.6406 14.078C41.8125 13.4999 42.2812 13.1718 43.0469 13.1405C44.4687 13.0624 45.8906 12.9999 47.3125 12.953C47.6719 12.9374 47.8594 12.8124 47.9844 12.453C48.4531 11.1405 48.9687 9.82805 49.4687 8.51555C49.7656 7.74992 50.1875 7.39055 50.8125 7.4218C51.5312 7.45305 51.9219 7.89055 52.1562 8.53117C52.6406 9.84367 53.1562 11.1562 53.6406 12.4687C53.7656 12.7968 53.9219 12.9218 54.2656 12.9374C55.5781 12.9843 56.875 13.078 58.1875 13.1093C58.9844 13.1249 59.625 13.328 60.0469 14.0468C60 14.3437 60 14.6093 60 14.8905ZM57.1875 14.9843C55.8906 14.9062 54.7656 14.8124 53.6562 14.7968C52.7812 14.7812 52.2969 14.3905 52.0156 13.5937C51.6562 12.5312 51.2187 11.4999 50.7656 10.3124C50.2969 11.5155 49.875 12.578 49.5 13.6562C49.2344 14.4218 48.75 14.7812 47.9375 14.7968C46.7969 14.828 45.6562 14.9062 44.3437 14.9843C45.2656 15.7343 46.0312 16.4218 46.875 17.0155C47.7969 17.6562 48 18.4062 47.6406 19.4374C47.3125 20.4062 47.0937 21.4218 46.7969 22.5468C47.7812 21.9062 48.6562 21.4062 49.4531 20.7812C50.375 20.0624 51.1875 20.0937 52.0937 20.7812C52.9062 21.3905 53.7812 21.9062 54.7344 22.5312C54.4219 21.3749 54.2031 20.3437 53.8594 19.3593C53.5156 18.3593 53.7344 17.6562 54.6094 17.0312C55.4687 16.4374 56.25 15.7499 57.1875 14.9843Z"
      fill="#42B42F" />
    <path
      d="M30.3597 0C30.844 0.328125 30.9847 0.78125 30.9534 1.35938C30.9222 2.3125 30.9534 3.26562 30.9378 4.23438C30.9378 4.92188 30.5628 5.3125 29.969 5.29688C29.4065 5.28125 29.0628 4.89062 29.0628 4.23438C29.0472 3.28125 29.094 2.3125 29.0472 1.35938C29.0315 0.78125 29.1565 0.328125 29.6409 0C29.8909 0 30.1253 0 30.3597 0Z"
      fill="#42B42F" />
    <path
      d="M34.6875 25.1094C34.5469 25.0469 34.2344 24.9375 33.9687 24.7656C32.7969 24.0156 31.6406 23.2656 30.5 22.4844C30.1406 22.2344 29.875 22.25 29.5156 22.5C28.375 23.2813 27.2031 24.0156 26.0469 24.7813C25.5 25.1563 24.9375 25.2656 24.3594 24.875C23.8281 24.5156 23.7031 23.9844 23.9062 23.2031C24.2656 21.8906 24.5937 20.5625 24.9844 19.25C25.1094 18.8125 25.0625 18.5469 24.6875 18.2656C23.5781 17.4219 22.5156 16.5469 21.4375 15.6719C20.8125 15.1719 20.6406 14.7031 20.8437 14.1094C21.0625 13.4375 21.5781 13.1875 22.2344 13.1563C23.6406 13.0938 25.0469 13.0156 26.4375 12.9688C26.8437 12.9531 27.0469 12.8281 27.1875 12.4219C27.6562 11.0938 28.1719 9.7969 28.6719 8.4844C28.9531 7.76565 29.375 7.4219 29.9844 7.43752C30.5937 7.43752 31.0156 7.78127 31.2969 8.50002C31.7969 9.7969 32.3125 11.0781 32.7656 12.375C32.9219 12.8281 33.1562 12.9688 33.6094 12.9844C35 13.0313 36.375 13.0938 37.7656 13.1719C38.8906 13.2344 39.5469 14.1875 39.0781 15.0781C38.9531 15.3125 38.75 15.5156 38.5469 15.6875C37.4531 16.5781 36.375 17.4688 35.2656 18.3281C34.9531 18.5625 34.875 18.7656 34.9844 19.1563C35.3906 20.5625 35.7656 21.9688 36.1406 23.3906C36.3906 24.3125 35.7812 25.1094 34.6875 25.1094ZM23.5781 14.9844C24.6406 15.8438 25.5469 16.5781 26.4531 17.2969C27 17.7344 27.2031 18.2656 27 18.9531C26.75 19.7969 26.5312 20.6406 26.3125 21.4844C26.2344 21.7656 26.1719 22.0625 26.0625 22.5313C27.1719 21.7969 28.1406 21.1875 29.0937 20.5469C29.7187 20.125 30.3125 20.125 30.9375 20.5469C31.7656 21.1094 32.5937 21.6406 33.4375 22.1875C33.5625 22.2656 33.7187 22.3281 33.9687 22.4688C33.6406 21.25 33.375 20.1719 33.0625 19.125C32.8281 18.3281 32.9844 17.7188 33.6719 17.2344C34.2656 16.7969 34.8281 16.3125 35.4062 15.8438C35.7187 15.5938 36.0156 15.3438 36.4375 15C35.0937 14.9219 33.9375 14.8438 32.7656 14.8125C32.0156 14.7969 31.5625 14.4375 31.3125 13.7656C31.0625 13.0938 30.8125 12.4219 30.5469 11.7344C30.3906 11.3125 30.2187 10.8906 29.9844 10.3438C29.5156 11.5938 29.0937 12.6719 28.6875 13.7656C28.4375 14.4531 27.9687 14.7813 27.2344 14.8125C26.0781 14.8281 24.9062 14.9063 23.5781 14.9844Z"
      fill="#42B42F" />
    <path
      d="M40.3441 5.81241C40.1566 6.14053 40.0629 6.40616 39.8754 6.57803C38.641 7.71866 37.391 8.84366 36.141 9.95303C35.7035 10.3437 35.141 10.3124 34.7816 9.92178C34.4222 9.53116 34.4535 8.96866 34.891 8.56241C36.1254 7.43741 37.3754 6.31241 38.6254 5.18741C38.9379 4.90616 39.3285 4.76553 39.6879 5.01553C39.9535 5.21866 40.1254 5.53116 40.3441 5.81241Z"
      fill="#42B42F" />
    <path
      d="M25.5777 9.32824C25.359 9.60949 25.2183 9.96887 24.9683 10.0782C24.6871 10.1876 24.2027 10.2032 23.9996 10.0314C22.6246 8.87512 21.3121 7.65637 19.984 6.43762C19.6402 6.10949 19.6871 5.54699 19.9996 5.21887C20.359 4.84387 20.8746 4.79699 21.3121 5.17199C22.1715 5.90637 22.9996 6.67199 23.8433 7.43762C24.2496 7.79699 24.6715 8.15637 25.0465 8.54699C25.2652 8.73449 25.3746 9.00012 25.5777 9.32824Z"
      fill="#42B42F" />
    <path
      d="M16.1097 52.0156C16.016 52.0156 15.8285 52.0156 15.641 52.0156C11.5941 52.0156 7.56283 52.0156 3.51596 52.0156C2.12533 52.0156 1.57846 51.2656 2.07846 49.9687C3.26596 46.8281 5.51596 44.8749 8.81283 44.3124C12.2347 43.7343 15.0628 44.8593 17.2816 47.5468C17.516 47.8437 17.5316 48.0624 17.3753 48.4218C16.9378 49.5937 16.5472 50.7656 16.1097 52.0156Z"
      fill="white" />
  </g>
  <defs>
    <clipPath id="clip0_526_249">
      <rect width="60" height="60" fill="white" />
    </clipPath>
  </defs>
</svg> 