<svg width="50" height="50" viewBox="0 0 50 50" fill="none" xmlns="http://www.w3.org/2000/svg">
                      <path d="M49.3359 2.12881C48.9258 1.76749 48.3496 1.6796 47.8613 1.90421L1.00586 22.998C0.507813 23.2226 0.195312 23.7108 0.195312 24.2577C0.195312 24.8046 0.517578 25.2929 1.00586 25.5175L13.8477 31.2694C14.2871 31.4648 14.8145 31.4159 15.2051 31.1327L29.9805 20.6542L19.1797 33.8183C18.9941 34.0429 18.8867 34.3163 18.8672 34.6093L18.1152 46.7675C18.0762 47.373 18.4375 47.9198 18.9941 48.1347C19.5996 48.3593 20.2734 48.1151 20.5664 47.705L27.3242 39.1601L35.8301 43.5937C36.1914 43.7792 36.6211 43.7987 37.002 43.6425C37.3828 43.4862 37.666 43.164 37.7832 42.7733L49.7461 3.56436C49.9023 3.04678 49.7461 2.49014 49.3359 2.12881ZM35.6445 40.371L27.5977 36.1815C27.0117 35.8788 26.2891 36.0351 25.8789 36.5526L21.1426 42.5487L21.5918 35.2245L38.6426 14.453C39.082 13.9159 39.0527 13.1444 38.584 12.6366C38.1152 12.1288 37.3438 12.0507 36.7773 12.4511L14.2578 28.4276L4.93164 24.2577L46.2207 5.66397L35.6445 40.371Z" fill="currentColor"/>
                    </svg> 