<svg width="40" height="40" viewBox="0 0 40 40" fill="none" xmlns="http://www.w3.org/2000/svg">
  <g clip-path="url(#clip0_81_2210)">
    <path
      d="M22.5 40H17.5C17.3342 40 17.1753 39.9342 17.0581 39.8169C16.9408 39.6997 16.875 39.5408 16.875 39.375V22.5C16.875 22.1685 17.0067 21.8505 17.2411 21.6161C17.4755 21.3817 17.7935 21.25 18.125 21.25H21.875C22.2065 21.25 22.5245 21.3817 22.7589 21.6161C22.9933 21.8505 23.125 22.1685 23.125 22.5V39.375C23.125 39.5408 23.0592 39.6997 22.9419 39.8169C22.8247 39.9342 22.6658 40 22.5 40ZM18.125 38.75H21.875V22.5H18.125V38.75Z"
      fill="#42B42F" />
    <path
      d="M14.375 40H9.375C9.20924 40 9.05027 39.9342 8.93306 39.8169C8.81585 39.6997 8.75 39.5408 8.75 39.375V30C8.75 29.6685 8.8817 29.3505 9.11612 29.1161C9.35054 28.8817 9.66848 28.75 10 28.75H13.75C14.0815 28.75 14.3995 28.8817 14.6339 29.1161C14.8683 29.3505 15 29.6685 15 30V39.375C15 39.5408 14.9342 39.6997 14.8169 39.8169C14.6997 39.9342 14.5408 40 14.375 40ZM10 38.75H13.75V30H10V38.75Z"
      fill="#42B42F" />
    <path
      d="M6.25 40H1.25C1.08424 40 0.925268 39.9342 0.808058 39.8169C0.690848 39.6997 0.625 39.5408 0.625 39.375V35C0.625 34.6685 0.756696 34.3505 0.991117 34.1161C1.22554 33.8817 1.54348 33.75 1.875 33.75H5.625C5.95652 33.75 6.27446 33.8817 6.50888 34.1161C6.7433 34.3505 6.875 34.6685 6.875 35V39.375C6.875 39.5408 6.80915 39.6997 6.69194 39.8169C6.57473 39.9342 6.41576 40 6.25 40ZM1.875 38.75H5.625V35H1.875V38.75Z"
      fill="#42B42F" />
    <path
      d="M30.625 40H25.625C25.4592 40 25.3003 39.9342 25.1831 39.8169C25.0658 39.6997 25 39.5408 25 39.375V13.75C25 13.4185 25.1317 13.1005 25.3661 12.8661C25.6005 12.6317 25.9185 12.5 26.25 12.5H30C30.3315 12.5 30.6495 12.6317 30.8839 12.8661C31.1183 13.1005 31.25 13.4185 31.25 13.75V39.375C31.25 39.5408 31.1842 39.6997 31.0669 39.8169C30.9497 39.9342 30.7908 40 30.625 40ZM26.25 38.75H30V13.75H26.25V38.75Z"
      fill="#42B42F" />
    <path
      d="M38.75 40H33.75C33.5842 40 33.4253 39.9342 33.3081 39.8169C33.1908 39.6997 33.125 39.5408 33.125 39.375V6.25C33.125 5.91848 33.2567 5.60054 33.4911 5.36612C33.7255 5.1317 34.0435 5 34.375 5H38.125C38.4565 5 38.7745 5.1317 39.0089 5.36612C39.2433 5.60054 39.375 5.91848 39.375 6.25V8.75H38.125V6.25H34.375V38.75H38.125V12.5H39.375V39.375C39.375 39.5408 39.3092 39.6997 39.1919 39.8169C39.0747 39.9342 38.9158 40 38.75 40Z"
      fill="#42B42F" />
    <path d="M38.125 10H39.375V11.2506H38.125V10Z" fill="#42B42F" />
    <path
      d="M18.6721 8.83203C18.6194 8.43794 18.5401 8.04787 18.4346 7.66453L19.6396 7.33203C19.7604 7.77052 19.851 8.21677 19.9108 8.66766L18.6721 8.83203Z"
      fill="#42B42F" />
    <path
      d="M9.99989 20.0002C8.03098 20.0001 6.10588 19.4189 4.46595 18.3293C2.82602 17.2397 1.54423 15.6902 0.781286 13.8751C0.0183417 12.06 -0.191807 10.0601 0.177185 8.12607C0.546178 6.19204 1.47789 4.40997 2.85551 3.00329C4.00118 1.83308 5.41671 0.962149 6.97773 0.46702C8.53874 -0.0281087 10.1975 -0.132282 11.8082 0.163653C13.4189 0.459587 14.9322 1.14657 16.2153 2.16425C17.4984 3.18192 18.5119 4.49914 19.1668 6.00016L18.0218 6.50016C17.3418 4.93851 16.2202 3.60962 14.795 2.6769C13.3699 1.74417 11.7032 1.24826 9.99989 1.25016H9.90739C8.18086 1.26841 6.49832 1.79706 5.07161 2.76956C3.6449 3.74205 2.5378 5.1149 1.88969 6.71528C1.24159 8.31565 1.08145 10.072 1.42945 11.7632C1.77744 13.4544 2.61801 15.0048 3.84532 16.2193C5.07263 17.4338 6.63182 18.258 8.32658 18.5882C10.0213 18.9184 11.7759 18.7398 13.3694 18.0749C14.9629 17.41 16.324 16.2885 17.2814 14.8516C18.2389 13.4148 18.7498 11.7268 18.7499 10.0002H19.9999C19.9918 12.6319 18.9498 15.1551 17.0986 17.0257C15.2473 18.8963 12.7352 19.9646 10.1036 20.0002H9.99989Z"
      fill="#42B42F" />
    <path d="M9.375 3.75H10.625V5.625H9.375V3.75Z" fill="#42B42F" />
    <path
      d="M10.9375 15H7.5V13.75H10.9375C11.3519 13.75 11.7493 13.5854 12.0424 13.2924C12.3354 12.9993 12.5 12.6019 12.5 12.1875C12.5 11.7731 12.3354 11.3757 12.0424 11.0826C11.7493 10.7896 11.3519 10.625 10.9375 10.625H9.0625C8.31658 10.625 7.60121 10.3287 7.07376 9.80124C6.54632 9.27379 6.25 8.55842 6.25 7.8125C6.25 7.06658 6.54632 6.35121 7.07376 5.82376C7.60121 5.29632 8.31658 5 9.0625 5H12.5V6.25H9.0625C8.6481 6.25 8.25067 6.41462 7.95765 6.70765C7.66462 7.00067 7.5 7.3981 7.5 7.8125C7.5 8.2269 7.66462 8.62433 7.95765 8.91735C8.25067 9.21038 8.6481 9.375 9.0625 9.375H10.9375C11.6834 9.375 12.3988 9.67132 12.9262 10.1988C13.4537 10.7262 13.75 11.4416 13.75 12.1875C13.75 12.9334 13.4537 13.6488 12.9262 14.1762C12.3988 14.7037 11.6834 15 10.9375 15Z"
      fill="#42B42F" />
    <path d="M9.375 14.375H10.625V16.25H9.375V14.375Z" fill="#42B42F" />
    <path d="M0.625 38.75H39.375V40H0.625V38.75Z" fill="#42B42F" />
    <path
      d="M3.56637 30.442L2.68262 29.5583L9.55762 22.6833C9.6748 22.566 9.83375 22.5002 9.99949 22.5001H13.4732L25.7857 8.95451C25.8445 8.88995 25.9161 8.83841 25.996 8.80321C26.0758 8.76801 26.1622 8.74993 26.2495 8.75014H27.837L35.1501 0.218262L36.0989 1.03076L28.5989 9.78076C28.5403 9.8494 28.4676 9.90455 28.3857 9.94242C28.3038 9.98028 28.2147 9.99998 28.1245 10.0001H26.5257L14.212 23.5458C14.1534 23.6102 14.082 23.6616 14.0023 23.6968C13.9227 23.732 13.8366 23.7502 13.7495 23.7501H10.2582L3.56637 30.442Z"
      fill="#42B42F" />
    <path d="M0.179688 32.0552L1.4295 30.8054L2.31338 31.6892L1.06357 32.9391L0.179688 32.0552Z"
      fill="#42B42F" />
    <path
      d="M36.25 3.75H35V1.25H32.5V0H35.625C35.7908 0 35.9497 0.065848 36.0669 0.183058C36.1842 0.300269 36.25 0.45924 36.25 0.625V3.75Z"
      fill="#42B42F" />
  </g>
  <defs>
    <clipPath id="clip0_81_2210">
      <rect width="40" height="40" fill="white" />
    </clipPath>
  </defs>
</svg>    