<svg width="50" height="50" viewBox="0 0 50 50" fill="none" xmlns="http://www.w3.org/2000/svg">
                      <g clip-path="url(#clip0_81_6381)">
                      <path d="M42.9687 49.0234V43.1641C42.9687 42.6247 42.5316 42.1875 41.9922 42.1875C41.4528 42.1875 41.0156 42.6247 41.0156 43.1641V48.0469H36.1328C35.5934 48.0469 35.1562 48.484 35.1562 49.0234C35.1562 49.5628 35.5934 50 36.1328 50H41.9922C42.5316 50 42.9687 49.5628 42.9687 49.0234Z" fill="currentColor"/>
                      <path d="M22.4609 45.5078C22.4609 46.0472 22.0238 46.4844 21.4844 46.4844C20.945 46.4844 20.5078 46.0472 20.5078 45.5078C20.5078 44.9684 20.945 44.5312 21.4844 44.5312C22.0238 44.5312 22.4609 44.9684 22.4609 45.5078Z" fill="currentColor"/>
                      <path d="M16.9067 45.9934C16.9769 46.0086 17.0467 46.0163 17.1158 46.0163C17.5648 46.0163 17.9695 45.7042 18.0687 45.2472C18.1835 44.72 17.8493 44.1997 17.3225 44.0853C8.41674 42.1451 1.95312 34.1186 1.95312 25C1.95312 14.2303 10.7147 5.46875 21.4844 5.46875C30.1807 5.46875 37.8898 11.3548 40.2645 19.6289H40.2343C39.9933 19.6289 39.7602 19.7182 39.5813 19.8795L36.8778 22.3121C35.6041 14.9799 29.1969 9.375 21.4844 9.375C12.8685 9.375 5.85937 16.3845 5.85937 25C5.85937 33.6155 12.8685 40.625 21.4844 40.625C29.1969 40.625 35.6048 35.0193 36.877 27.6871L39.5809 30.1204C39.7602 30.2818 39.9929 30.3711 40.2343 30.3711H40.2645C38.2995 37.2341 32.6793 42.5525 25.6462 44.0849C25.119 44.1997 24.7852 44.72 24.8997 45.2472C24.9992 45.7042 25.4036 46.0159 25.8529 46.0159C25.922 46.0159 25.9918 46.0086 26.062 45.9934C33.9813 44.268 40.2725 38.1794 42.2893 30.3711H49.0234C49.3835 30.3711 49.7142 30.1727 49.8844 29.8553C50.0541 29.5379 50.0358 29.1527 49.8359 28.8528L47.2675 25L49.8359 21.1471C50.0358 20.8477 50.0545 20.462 49.8844 20.1446C49.7142 19.8273 49.3835 19.6289 49.0234 19.6289H42.2882C39.8521 10.2222 31.3194 3.51562 21.4844 3.51562C9.63783 3.51562 0 13.1534 0 25C0 35.2489 7.2338 43.8865 16.9067 45.9934ZM21.4844 38.6718C13.9458 38.6718 7.81249 32.5386 7.81249 25C7.81249 17.4614 13.9458 11.3281 21.4844 11.3281C28.6491 11.3281 34.5493 16.8152 35.112 23.9021L34.9769 24.0234H31.1985C30.7068 19.0967 26.5377 15.2363 21.4844 15.2363C16.1007 15.2363 11.7206 19.6163 11.7206 25C11.7206 30.3837 16.1007 34.7637 21.4844 34.7637C26.5381 34.7637 30.7068 30.9036 31.1985 25.9765H34.9766L35.1112 26.0975C34.5497 33.1848 28.6503 38.6718 21.4844 38.6718ZM25.267 24.0234C24.8321 22.3404 23.3013 21.0937 21.4844 21.0937C19.3306 21.0937 17.5781 22.8462 17.5781 25C17.5781 27.1538 19.3306 28.9062 21.4844 28.9062C23.3013 28.9062 24.8321 27.6584 25.267 25.9754H29.2305C28.7483 29.8229 25.4597 32.8106 21.4844 32.8106C17.1776 32.8106 13.6738 29.3068 13.6738 25C13.6738 20.6932 17.1776 17.1894 21.4844 17.1894C25.4597 17.1894 28.7483 20.1763 29.2305 24.0234H25.267ZM23.4375 25C23.4375 26.0769 22.5612 26.9531 21.4844 26.9531C20.4075 26.9531 19.5312 26.0769 19.5312 25C19.5312 23.9231 20.4075 23.0469 21.4844 23.0469C22.5612 23.0469 23.4375 23.9231 23.4375 25ZM45.2812 25.5417L47.1988 28.4179H40.6089L37.0079 25.177C36.9701 25.0953 36.9217 25.0198 36.8637 24.9523L40.6089 21.582H47.1988L45.2812 24.4583C45.0626 24.7864 45.0626 25.2136 45.2812 25.5417Z" fill="currentColor"/>
                      <path d="M0.976562 7.81249C1.51596 7.81249 1.95312 7.37533 1.95312 6.83593V1.95312H6.83593C7.37533 1.95312 7.81249 1.51596 7.81249 0.976562C7.81249 0.437164 7.37533 0 6.83593 0H0.976562C0.437164 0 0 0.437164 0 0.976562V6.83593C0 7.37533 0.437164 7.81249 0.976562 7.81249Z" fill="currentColor"/>
                      <path d="M41.9922 7.81249C42.5316 7.81249 42.9687 7.37533 42.9687 6.83593V0.976562C42.9687 0.437164 42.5316 0 41.9922 0H36.1328C35.5934 0 35.1562 0.437164 35.1562 0.976562C35.1562 1.51596 35.5934 1.95312 36.1328 1.95312H41.0156V6.83593C41.0156 7.37533 41.4528 7.81249 41.9922 7.81249Z" fill="currentColor"/>
                      <path d="M0.976562 50H6.83593C7.37533 50 7.81249 49.5628 7.81249 49.0234C7.81249 48.484 7.37533 48.0469 6.83593 48.0469H1.95312V43.1641C1.95312 42.6247 1.51596 42.1875 0.976562 42.1875C0.437164 42.1875 0 42.6247 0 43.1641V49.0234C0 49.5628 0.437164 50 0.976562 50Z" fill="currentColor"/>
                      </g>
                      <defs>
                      <clipPath id="clip0_81_6381">
                      <rect width="50" height="50" fill="currentColor"/>
                      </clipPath>
                      </defs>
                      </svg>  