<svg width="20" height="8" viewBox="0 0 20 8" fill="none" xmlns="http://www.w3.org/2000/svg">
                    <path d="M19.5389 4.4077H0.462014C0.235091 4.4077 0.0517578 4.22437 0.0517578 3.99745C0.0517578 3.77052 0.235091 3.58719 0.462014 3.58719H18.5479L16.0582 1.09745C15.8979 0.937189 15.8979 0.676933 16.0582 0.516677C16.2184 0.35642 16.4787 0.35642 16.6389 0.516677L19.83 3.7077C19.9479 3.82565 19.9825 4.00129 19.9184 4.15514C19.8543 4.3077 19.7043 4.4077 19.5389 4.4077Z" fill="#18191D"/>
                    <path d="M16.3445 7.60253C16.2394 7.60253 16.1342 7.56278 16.0548 7.48202C15.8945 7.32176 15.8945 7.0615 16.0548 6.90125L19.2496 3.70637C19.4099 3.54612 19.6701 3.54612 19.8304 3.70637C19.9907 3.86663 19.9907 4.12689 19.8304 4.28714L16.6355 7.48202C16.5548 7.56278 16.4496 7.60253 16.3445 7.60253Z" fill="#18191D"/>
                  </svg>   