<svg width="30" height="30" viewBox="0 0 30 30" fill="none" xmlns="http://www.w3.org/2000/svg">
  <path
    d="M26.7673 26.3067L22.9722 19.7334C23.6016 19.2033 24.0366 18.4495 24.1528 17.5952C24.2318 17.0143 24.5305 16.4968 24.9941 16.138C26.1957 15.2079 26.633 13.5759 26.0575 12.1695C25.8354 11.6269 25.8354 11.0294 26.0575 10.4869C26.633 9.08042 26.1957 7.44857 24.9941 6.51837C24.5305 6.15955 24.2317 5.64203 24.1528 5.06116C23.948 3.55542 22.7533 2.36074 21.2476 2.15605C20.6668 2.07705 20.1493 1.77829 19.7905 1.31475C18.8603 0.113039 17.2285 -0.324196 15.8219 0.251341C15.2794 0.473387 14.6818 0.473387 14.1393 0.251341C12.733 -0.324254 11.101 0.113039 10.1708 1.31475C9.812 1.77829 9.29448 2.07705 8.71361 2.15605C7.20781 2.3608 6.0132 3.55542 5.8085 5.06121C5.7295 5.64208 5.43075 6.1596 4.9672 6.51843C3.76549 7.44863 3.32826 9.08054 3.90379 10.4869C4.12584 11.0294 4.12584 11.6271 3.90379 12.1695C3.3282 13.5759 3.76549 15.2079 4.9672 16.1381C5.43075 16.4969 5.7295 17.0144 5.8085 17.5952C5.92617 18.4607 6.37132 19.223 7.01413 19.754L3.23086 26.3067C3.11237 26.512 3.12913 26.7685 3.27346 26.9565C3.41774 27.1445 3.661 27.2272 3.89008 27.1658L7.18771 26.2822L8.06751 29.5656C8.12887 29.7946 8.32208 29.964 8.55708 29.995C8.58275 29.9984 8.60836 30 8.63373 30C8.84107 30 9.03551 29.8898 9.14106 29.707L13.2234 22.6362C13.533 22.6028 13.8412 22.527 14.1393 22.405C14.6818 22.183 15.2795 22.183 15.8219 22.405C16.1326 22.5323 16.4545 22.6098 16.7773 22.6407L20.857 29.707C20.9626 29.8899 21.157 30 21.3643 30C21.3898 30 21.4153 29.9984 21.4411 29.995C21.6761 29.964 21.8693 29.7946 21.9306 29.5656L22.8105 26.2822L26.1081 27.1658C26.3369 27.2272 26.5804 27.1446 26.7247 26.9565C26.869 26.7685 26.8858 26.512 26.7673 26.3067ZM8.83339 27.8958L8.16808 25.4128C8.12782 25.2627 8.02966 25.1347 7.89505 25.057C7.76044 24.9793 7.60057 24.9582 7.45037 24.9984L4.95325 25.6675L8.03241 20.3342C8.25012 20.4121 8.47803 20.4683 8.71355 20.5004C9.29442 20.5794 9.81194 20.8781 10.1708 21.3417C10.6262 21.93 11.2499 22.3346 11.9329 22.5273L8.83339 27.8958ZM13.6953 21.3204C12.7747 21.6972 11.7065 21.4109 11.0976 20.6243C10.5494 19.9162 9.75879 19.4597 8.87143 19.3391C7.88579 19.205 7.10373 18.423 6.96977 17.4373C6.84911 16.55 6.39265 15.7594 5.68449 15.2112C4.89787 14.6023 4.61166 13.534 4.98841 12.6135C5.32766 11.7846 5.32766 10.8718 4.98841 10.043C4.61166 9.12238 4.89787 8.05411 5.68449 7.44523C6.39265 6.89706 6.84911 6.10651 6.96977 5.21909C7.10379 4.23345 7.88579 3.4514 8.87143 3.31737C9.75879 3.19677 10.5494 2.74031 11.0976 2.03216C11.527 1.47737 12.1847 1.17152 12.8582 1.17152C13.1396 1.17152 13.4239 1.22502 13.6952 1.33608C14.5241 1.67527 15.437 1.67527 16.2658 1.33608C17.1863 0.959262 18.2547 1.24554 18.8635 2.03216C19.4117 2.74031 20.2023 3.19677 21.0896 3.31737C22.0752 3.4514 22.8572 4.23339 22.9913 5.21909C23.1119 6.10651 23.5684 6.89706 24.2765 7.44523C25.0632 8.05411 25.3494 9.12232 24.9726 10.043C24.6334 10.8718 24.6334 11.7846 24.9726 12.6135C25.3494 13.534 25.0631 14.6023 24.2765 15.2112C23.5684 15.7594 23.1119 16.5499 22.9913 17.4373C22.8572 18.423 22.0752 19.205 21.0896 19.339C20.2022 19.4596 19.4116 19.9161 18.8635 20.6243C18.2545 21.411 17.1863 21.6971 16.2658 21.3203C15.437 20.9812 14.5242 20.9812 13.6953 21.3204ZM22.5477 24.9984C22.2349 24.9146 21.9138 25.1002 21.83 25.4128L21.1646 27.8958L18.0599 22.5181C18.7304 22.3219 19.342 21.9209 19.7905 21.3417C20.1492 20.8781 20.6667 20.5793 21.2475 20.5004C21.4941 20.4669 21.7321 20.4063 21.959 20.3227L25.0448 25.6675L22.5477 24.9984Z"
    fill="#42B42F"></path>
  <path
    d="M12.3172 9.16044L10.4939 10.9837C10.384 11.0936 10.3223 11.2427 10.3223 11.3981C10.3223 11.5535 10.384 11.7026 10.4939 11.8125L13.9136 15.2322C14.0234 15.342 14.1725 15.4038 14.3279 15.4038C14.4833 15.4038 14.6324 15.342 14.7423 15.2322L19.5038 10.4707C19.7326 10.2418 19.7326 9.87077 19.5038 9.64192L17.6805 7.81862C17.5706 7.70874 17.4216 7.64697 17.2662 7.64697C17.1107 7.64697 16.9617 7.70874 16.8518 7.81862L14.328 10.3425L13.1461 9.1605C13.0362 9.05062 12.8871 8.98886 12.7317 8.98886C12.5762 8.9888 12.4271 9.05056 12.3172 9.16044ZM13.9135 11.5856C14.0234 11.6955 14.1725 11.7572 14.3279 11.7572C14.4833 11.7572 14.6324 11.6955 14.7423 11.5856L17.266 9.06176L18.2606 10.0563L14.3279 13.989L11.7371 11.3981L12.7316 10.4036L13.9135 11.5856Z"
    fill="#42B42F"></path>
  <path
    d="M22.6175 11.5253C22.6175 9.96854 22.151 8.47136 21.2684 7.19558C20.4065 5.94986 19.2093 4.99727 17.8063 4.4409C17.5053 4.32164 17.1648 4.46879 17.0455 4.76966C16.9262 5.07053 17.0734 5.41112 17.3742 5.53044C19.8474 6.51116 21.4455 8.86429 21.4455 11.5253C21.4455 15.0797 18.5537 17.9716 14.9992 17.9716C11.4447 17.9716 8.55291 15.0797 8.55291 11.5253C8.55291 8.86423 10.151 6.5111 12.6242 5.53038C12.9251 5.41107 13.0723 5.07047 12.953 4.7696C12.8337 4.46873 12.493 4.32152 12.1922 4.44084C10.7891 4.99727 9.59188 5.9498 8.73001 7.19552C7.8474 8.4713 7.38086 9.96848 7.38086 11.5252C7.38086 15.726 10.7985 19.1435 14.9992 19.1435C19.2 19.1436 22.6175 15.726 22.6175 11.5253Z"
    fill="#42B42F"></path>
  <path
    d="M14.9981 5.07879C15.1523 5.07879 15.3035 5.01667 15.4124 4.90709C15.5214 4.79809 15.5842 4.64748 15.5842 4.49277C15.5842 4.33864 15.5215 4.18745 15.4124 4.07844C15.3035 3.96944 15.1523 3.90674 14.9981 3.90674C14.844 3.90674 14.6928 3.96944 14.5838 4.07844C14.4748 4.18745 14.4121 4.33864 14.4121 4.49277C14.4121 4.64748 14.4748 4.79809 14.5838 4.90709C14.6928 5.01667 14.844 5.07879 14.9981 5.07879Z"
    fill="#42B42F"></path>
</svg>