<svg width="30" height="30" viewBox="0 0 30 30" fill="none" xmlns="http://www.w3.org/2000/svg">
  <g clip-path="url(#clip0333)">
    <path
      d="M18.3934 5.78186C19.5466 4.85027 19.8077 3.85441 19.8236 3.18298C19.8624 1.54956 18.5726 0.354248 18.4253 0.223408C18.0606 -0.100968 17.502 -0.0682723 17.1776 0.296474C16.8532 0.661221 16.8859 1.2198 17.2506 1.54423C17.2589 1.55161 18.0761 2.31615 18.0565 3.14109C18.0461 3.5806 17.7929 3.99463 17.2826 4.40683C16.1294 5.33842 15.8683 6.33428 15.8524 7.00571C15.8136 8.63913 17.1035 9.83444 17.2506 9.96534C17.4195 10.1155 17.6302 10.1894 17.84 10.1894C18.0835 10.1894 18.3259 10.0898 18.5002 9.8938C18.8245 9.52905 18.7936 8.972 18.4289 8.64762C18.1969 8.43668 17.5993 7.7369 17.6197 7.04098C17.6325 6.60393 17.8856 6.19201 18.3934 5.78186Z"
      fill="#42B42F"></path>
    <path
      d="M12.786 5.78186C13.9392 4.85027 14.2003 3.85441 14.2162 3.18298C14.255 1.54956 12.9652 0.354248 12.8179 0.223408C12.4533 -0.100968 11.8946 -0.0682723 11.5702 0.296474C11.2458 0.661221 11.2785 1.2198 11.6432 1.54423C11.6515 1.55161 12.4686 2.31615 12.4491 3.14109C12.4386 3.5806 12.1855 3.99463 11.6752 4.40683C10.522 5.33842 10.2609 6.33428 10.245 7.00571C10.2062 8.63913 11.496 9.83444 11.6432 9.96534C11.812 10.1155 12.0227 10.1894 12.2326 10.1894C12.4761 10.1894 12.7185 10.0898 12.8927 9.8938C13.2171 9.52905 13.1862 8.972 12.8214 8.64762C12.5895 8.43668 11.9919 7.7369 12.0122 7.04098C12.0251 6.60393 12.2781 6.19201 12.786 5.78186Z"
      fill="#42B42F"></path>
    <path
      d="M25.4392 14.4226H24.3931V13.7745C24.3931 13.2864 23.9974 12.8906 23.5093 12.8906H0.952189C0.464102 12.8906 0.0683594 13.2863 0.0683594 13.7745V18.439C0.0683594 22.5607 2.34971 26.1849 5.77476 28.2323H0.952717C0.46463 28.2323 0.0688867 28.6279 0.0688867 29.1161C0.0688867 29.6042 0.464512 29.9999 0.952717 29.9999H23.5094C23.9974 29.9999 24.3932 29.6042 24.3932 29.1161C24.3932 28.6279 23.9975 28.2323 23.5094 28.2323H18.6868C20.6345 27.068 22.2122 25.394 23.2109 23.4083H25.4392C27.9166 23.4083 29.9321 21.3928 29.9321 18.9154C29.9321 16.4381 27.9165 14.4226 25.4392 14.4226ZM22.6255 18.439C22.6255 23.839 17.9624 28.2323 12.2307 28.2323C6.49909 28.2323 1.83602 23.839 1.83602 18.439V14.6583H22.6255V18.439H22.6255ZM25.4392 21.6407H23.9183C24.2271 20.6236 24.3931 19.5493 24.3931 18.439V16.1902H25.4392C26.9418 16.1902 28.1644 17.4127 28.1644 18.9154C28.1644 20.4181 26.9418 21.6407 25.4392 21.6407Z"
      fill="#42B42F"></path>
    <path
      d="M7.17856 5.78186C8.3318 4.85027 8.59289 3.85441 8.60877 3.18298C8.64756 1.54956 7.35773 0.354248 7.21049 0.223408C6.8458 -0.100968 6.28717 -0.0682723 5.96273 0.296474C5.63836 0.661163 5.67105 1.2198 6.0358 1.54423C6.04406 1.55161 6.86121 2.31615 6.84164 3.14109C6.83121 3.5806 6.57808 3.99463 6.06779 4.40683C4.91455 5.33842 4.65345 6.33428 4.63757 7.00571C4.59884 8.63907 5.88867 9.83438 6.03586 9.96528C6.20426 10.115 6.41396 10.1887 6.62291 10.1887C6.86648 10.1887 7.109 10.0886 7.28367 9.89222C7.60805 9.52747 7.57535 8.96889 7.21061 8.64446C7.20234 8.63708 6.38519 7.87254 6.40476 7.0476C6.41508 6.60809 6.6682 6.19401 7.17856 5.78186Z"
      fill="#42B42F"></path>
  </g>
  <defs>
    <clipPath id="clip0333">
      <rect width="30" height="30" fill="white"></rect>
    </clipPath>
  </defs>
</svg>