<svg width="40" height="40" viewBox="0 0 40 40" fill="none" xmlns="http://www.w3.org/2000/svg">
                        <g clip-path="url(#clip0_81_544)">
                        <path d="M39.1734 1.5156C39.1376 1.35251 39.0563 1.19738 38.9295 1.07058C38.8027 0.943877 38.6476 0.862423 38.4845 0.826673C34.4271 -0.135122 30.2842 -0.258028 26.4114 0.459857C26.4098 0.460129 26.4081 0.460491 26.4064 0.460762C25.9304 0.549185 25.458 0.650279 24.9907 0.764044C21.6828 1.56918 18.6142 3.01553 15.9643 5.00293C15.9218 5.02981 15.8816 5.06013 15.8443 5.09344C14.9868 5.74498 14.1735 6.45382 13.4113 7.21605C10.2697 10.3577 8.03857 14.3618 6.9593 18.7953C5.95632 22.9152 5.9413 27.4034 6.91196 31.808L0.2651 38.4549C-0.0883215 38.8083 -0.088412 39.3814 0.2651 39.7349C0.441766 39.9116 0.673458 40 0.90506 40C1.13666 40 1.36836 39.9116 1.54502 39.7349L8.19197 33.088C12.5967 34.0585 17.0848 34.0435 21.2047 33.0407C25.6382 31.9615 29.6424 29.7304 32.784 26.5887C34.9728 24.3999 36.7197 21.7924 37.9429 18.9127C37.9679 18.8656 37.989 18.816 38.0054 18.7643C38.5093 17.5562 38.9216 16.3009 39.236 15.0094C40.2755 10.7394 40.2538 6.0737 39.1734 1.5156ZM27.4801 2.1246C30.362 1.67244 33.397 1.70575 36.4652 2.25484L27.4801 11.2399V2.1246ZM14.6913 8.49597C14.9684 8.21875 15.2519 7.95022 15.5421 7.68957V10.3272C15.5421 10.8269 15.9473 11.2322 16.4472 11.2322C16.9471 11.2322 17.3522 10.8269 17.3522 10.3272V6.22991C19.8185 4.44805 22.6406 3.18451 25.6699 2.47712V13.0501L17.3522 21.3678V13.7198C17.3522 13.2201 16.9471 12.8148 16.4472 12.8148C15.9473 12.8148 15.5421 13.2201 15.5421 13.7198V23.1779L8.45018 30.2697C6.96744 21.9836 9.24581 13.9415 14.6913 8.49597ZM31.504 25.3087C26.0586 30.7542 18.0165 33.0326 9.73019 31.5497L21.886 19.3939H35.7228C34.6504 21.5779 33.2376 23.5752 31.504 25.3087ZM36.5174 17.5838H23.6962L37.7452 3.53485C38.6283 8.47008 38.1772 13.3187 36.5174 17.5838Z" fill="white"/>
                        </g>
                        <defs>
                        <clipPath id="clip0_81_544">
                        <rect width="40" height="40" fill="white"/>
                        </clipPath>
                        </defs>
                      </svg>  