<svg width="40" height="40" viewBox="0 0 40 40" fill="none" xmlns="http://www.w3.org/2000/svg">
                        <path d="M36.8436 1.9563H3.15638C1.41593 1.9563 0 3.37223 0 5.11268V27.3739C0 29.1144 1.41593 30.5303 3.15638 30.5303H14.5176V36.2336H10.2438C9.74407 36.2336 9.33882 36.6387 9.33882 37.1386C9.33882 37.6384 9.74407 38.0435 10.2438 38.0435H29.7561C30.2558 38.0435 30.6611 37.6384 30.6611 37.1386C30.6611 36.6387 30.2558 36.2336 29.7561 36.2336H25.4824V30.5303H36.8435C38.5839 30.5303 39.9999 29.1144 39.9999 27.3739V5.11268C40 3.37223 38.5841 1.9563 36.8436 1.9563ZM3.15638 3.76625H36.8436C37.5861 3.76625 38.19 4.37024 38.19 5.11268V24.8078H1.80995V5.11268C1.80995 4.37024 2.41394 3.76625 3.15638 3.76625ZM23.6725 36.2336H16.3275V30.5303H23.6725V36.2336ZM36.8436 28.7204H3.15638C2.41394 28.7204 1.80995 28.1164 1.80995 27.3739V26.6177H38.19V27.3739C38.19 28.1164 37.5861 28.7204 36.8436 28.7204Z" fill="white"/>
                        <path d="M13.944 19.3833H26.0566C26.5563 19.3833 26.9616 18.9782 26.9616 18.4784V10.0957C26.9616 9.59583 26.5563 9.19067 26.0566 9.19067H13.944C13.4443 9.19067 13.0391 9.59583 13.0391 10.0957V18.4784C13.0391 18.9781 13.4443 19.3833 13.944 19.3833ZM14.849 11.0006H25.1516V17.5734H14.849V11.0006Z" fill="white"/>
                        <path d="M28.738 11.0006H29.3716C29.8714 11.0006 30.2766 10.5955 30.2766 10.0957C30.2766 9.59583 29.8714 9.19067 29.3716 9.19067H28.738C28.2383 9.19067 27.833 9.59583 27.833 10.0957C27.833 10.5955 28.2382 11.0006 28.738 11.0006Z" fill="white"/>
                        <path d="M26.0563 8.31902C26.5561 8.31902 26.9613 7.91386 26.9613 7.41404V6.78047C26.9613 6.28065 26.5561 5.87549 26.0563 5.87549C25.5566 5.87549 25.1514 6.28065 25.1514 6.78047V7.41404C25.1514 7.91386 25.5565 8.31902 26.0563 8.31902Z" fill="white"/>
                        <path d="M28.738 19.3834H29.3716C29.8714 19.3834 30.2766 18.9783 30.2766 18.4785C30.2766 17.9786 29.8714 17.5735 29.3716 17.5735H28.738C28.2383 17.5735 27.833 17.9786 27.833 18.4785C27.833 18.9783 28.2382 19.3834 28.738 19.3834Z" fill="white"/>
                        <path d="M26.0563 20.2549C25.5566 20.2549 25.1514 20.66 25.1514 21.1599V21.7934C25.1514 22.2933 25.5566 22.6984 26.0563 22.6984C26.5561 22.6984 26.9613 22.2933 26.9613 21.7934V21.1599C26.9613 20.66 26.5561 20.2549 26.0563 20.2549Z" fill="white"/>
                        <path d="M10.6286 11.0006H11.2623C11.762 11.0006 12.1673 10.5955 12.1673 10.0957C12.1673 9.59583 11.762 9.19067 11.2623 9.19067H10.6286C10.1289 9.19067 9.72363 9.59583 9.72363 10.0957C9.72363 10.5955 10.1289 11.0006 10.6286 11.0006Z" fill="white"/>
                        <path d="M13.944 8.31902C14.4438 8.31902 14.849 7.91386 14.849 7.41404V6.78047C14.849 6.28065 14.4438 5.87549 13.944 5.87549C13.4443 5.87549 13.0391 6.28065 13.0391 6.78047V7.41404C13.0391 7.91386 13.4443 8.31902 13.944 8.31902Z" fill="white"/>
                        <path d="M10.6286 19.3834H11.2623C11.762 19.3834 12.1673 18.9783 12.1673 18.4785C12.1673 17.9786 11.762 17.5735 11.2623 17.5735H10.6286C10.1289 17.5735 9.72363 17.9786 9.72363 18.4785C9.72363 18.9783 10.1289 19.3834 10.6286 19.3834Z" fill="white"/>
                        <path d="M13.944 22.6984C14.4438 22.6984 14.849 22.2933 14.849 21.7934V21.1599C14.849 20.66 14.4438 20.2549 13.944 20.2549C13.4443 20.2549 13.0391 20.66 13.0391 21.1599V21.7934C13.0391 22.2933 13.4443 22.6984 13.944 22.6984Z" fill="white"/>
                      </svg>  