<svg width="158" height="38" viewBox="0 0 158 38" fill="none" xmlns="http://www.w3.org/2000/svg">
<path d="M49.4323 28.7883V11.7827H42.7258V7.8307H60.9889V11.7827H54.2824V28.7883H49.4323ZM69.6257 29.0278C67.7894 29.0278 66.1726 28.6685 64.7755 27.95C63.3983 27.2314 62.3305 26.2534 61.572 25.0159C60.8135 23.7585 60.4343 22.3314 60.4343 20.7346C60.4343 19.1179 60.8036 17.6908 61.5421 16.4532C62.3006 15.1958 63.3284 14.2178 64.6258 13.5192C65.9232 12.8006 67.3903 12.4414 69.0269 12.4414C70.6037 12.4414 72.0208 12.7807 73.2783 13.4593C74.5557 14.118 75.5637 15.076 76.3022 16.3335C77.0406 17.571 77.4099 19.058 77.4099 20.7945C77.4099 20.9741 77.3999 21.1837 77.38 21.4232C77.3601 21.6428 77.34 21.8524 77.3201 22.0519H64.2366V19.3274H74.8651L73.0687 20.1358C73.0687 19.2975 72.8991 18.5689 72.5598 17.9502C72.2204 17.3315 71.7514 16.8525 71.1526 16.5131C70.5538 16.1538 69.8552 15.9742 69.0568 15.9742C68.2585 15.9742 67.5499 16.1538 66.9311 16.5131C66.3324 16.8525 65.8633 17.3414 65.524 17.9802C65.1846 18.5989 65.015 19.3374 65.015 20.1957V20.9142C65.015 21.7925 65.2047 22.5709 65.5839 23.2495C65.9831 23.9082 66.5319 24.4171 67.2305 24.7764C67.9491 25.1157 68.7874 25.2854 69.7454 25.2854C70.6037 25.2854 71.3522 25.1556 71.9909 24.8962C72.6496 24.6367 73.2484 24.2475 73.7873 23.7285L76.2722 26.4231C75.5338 27.2614 74.6056 27.91 73.4879 28.3691C72.3701 28.8082 71.0827 29.0278 69.6257 29.0278ZM88.3036 29.0278C86.5671 29.0278 85.0203 28.6785 83.663 27.9799C82.3058 27.2614 81.2379 26.2734 80.4595 25.0159C79.7011 23.7585 79.3218 22.3314 79.3218 20.7346C79.3218 19.1179 79.7011 17.6908 80.4595 16.4532C81.2379 15.1958 82.3058 14.2178 83.663 13.5192C85.0203 12.8006 86.5671 12.4414 88.3036 12.4414C90.0003 12.4414 91.4772 12.8006 92.7346 13.5192C93.9921 14.2178 94.9202 15.2257 95.519 16.5431L91.8963 18.4891C91.4772 17.7306 90.9483 17.1718 90.3096 16.8125C89.6908 16.4532 89.0123 16.2736 88.2737 16.2736C87.4753 16.2736 86.7568 16.4532 86.118 16.8125C85.4794 17.1718 84.9704 17.6808 84.5911 18.3394C84.2319 18.9981 84.0522 19.7964 84.0522 20.7346C84.0522 21.6727 84.2319 22.4711 84.5911 23.1297C84.9704 23.7884 85.4794 24.2974 86.118 24.6566C86.7568 25.0159 87.4753 25.1955 88.2737 25.1955C89.0123 25.1955 89.6908 25.0259 90.3096 24.6866C90.9483 24.3273 91.4772 23.7585 91.8963 22.98L95.519 24.956C94.9202 26.2534 93.9921 27.2614 92.7346 27.9799C91.4772 28.6785 90.0003 29.0278 88.3036 29.0278ZM107.911 12.4414C109.188 12.4414 110.326 12.7008 111.324 13.2198C112.342 13.7187 113.14 14.4972 113.719 15.5551C114.298 16.5929 114.587 17.9303 114.587 19.5669V28.7883H109.917V20.2855C109.917 18.9881 109.627 18.03 109.048 17.4113C108.49 16.7926 107.691 16.4832 106.653 16.4832C105.915 16.4832 105.246 16.6429 104.647 16.9622C104.068 17.2616 103.609 17.7306 103.27 18.3694C102.951 19.0081 102.791 19.8264 102.791 20.8244V28.7883H98.1205V6.57324H102.791V17.1418L101.743 15.7946C102.322 14.7168 103.15 13.8885 104.228 13.3096C105.306 12.7307 106.533 12.4414 107.911 12.4414ZM128.61 12.4414C129.889 12.4414 131.026 12.7008 132.024 13.2198C133.041 13.7187 133.841 14.4972 134.419 15.5551C134.998 16.5929 135.287 17.9303 135.287 19.5669V28.7883H130.616V20.2855C130.616 18.9881 130.327 18.03 129.748 17.4113C129.19 16.7926 128.392 16.4832 127.353 16.4832C126.615 16.4832 125.946 16.6429 125.347 16.9622C124.769 17.2616 124.31 17.7306 123.97 18.3694C123.651 19.0081 123.491 19.8264 123.491 20.8244V28.7883H118.82V12.6809H123.281V17.1418L122.443 15.7946C123.022 14.7168 123.85 13.8885 124.928 13.3096C126.006 12.7307 127.233 12.4414 128.61 12.4414ZM147.303 29.0278C145.586 29.0278 144.059 28.6685 142.722 27.95C141.405 27.2314 140.357 26.2534 139.579 25.0159C138.82 23.7585 138.441 22.3314 138.441 20.7346C138.441 19.1179 138.82 17.6908 139.579 16.4532C140.357 15.1958 141.405 14.2178 142.722 13.5192C144.059 12.8006 145.586 12.4414 147.303 12.4414C148.999 12.4414 150.516 12.8006 151.854 13.5192C153.191 14.2178 154.239 15.1858 154.997 16.4233C155.755 17.6608 156.135 19.0979 156.135 20.7346C156.135 22.3314 155.755 23.7585 154.997 25.0159C154.239 26.2534 153.191 27.2314 151.854 27.95C150.516 28.6685 148.999 29.0278 147.303 29.0278ZM147.303 25.1955C148.081 25.1955 148.779 25.0159 149.399 24.6566C150.017 24.2974 150.507 23.7884 150.866 23.1297C151.225 22.4511 151.405 21.6527 151.405 20.7346C151.405 19.7964 151.225 18.9981 150.866 18.3394C150.507 17.6808 150.017 17.1718 149.399 16.8125C148.779 16.4532 148.081 16.2736 147.303 16.2736C146.525 16.2736 145.826 16.4532 145.207 16.8125C144.588 17.1718 144.089 17.6808 143.71 18.3394C143.351 18.9981 143.171 19.7964 143.171 20.7346C143.171 21.6527 143.351 22.4511 143.71 23.1297C144.089 23.7884 144.588 24.2974 145.207 24.6566C145.826 25.0159 146.525 25.1955 147.303 25.1955Z" fill="#8A8A8A"/>
<path d="M18.2684 36.8723C18.0157 36.8723 17.7543 36.8723 17.5017 36.8723C16.3949 36.5063 15.9941 35.7046 16.055 34.5892C16.0811 34.1796 16.055 33.7613 16.055 33.3343C14.8525 33.3343 13.6847 33.3343 12.4734 33.3343C12.4734 33.9791 12.4909 34.6066 12.4734 35.2253C12.4561 35.8353 12.1947 36.3233 11.6544 36.6283C11.48 36.7329 11.2709 36.7939 11.0879 36.8723C10.8526 36.8723 10.6261 36.8723 10.3908 36.8723C9.21435 36.3843 8.92677 35.9486 8.92677 34.6501C8.92677 34.2145 8.92677 33.7788 8.92677 33.3082C8.31677 33.3082 7.75034 33.3169 7.18391 33.3082C6.05106 33.2908 5.11864 32.855 4.38664 31.9749C3.82021 31.2952 3.5675 30.5109 3.5675 29.6308C3.5675 29.0817 3.5675 28.5241 3.5675 27.9489C2.93136 27.9489 2.33879 27.9664 1.74622 27.9489C0.43908 27.8966 -0.38006 26.5546 0.177652 25.3607C0.465222 24.742 0.970649 24.4284 1.64165 24.4022C2.27779 24.3761 2.91393 24.3935 3.55008 24.3935C3.55008 23.1736 3.55008 22.0058 3.55008 20.7858C2.87908 20.7858 2.2255 20.8294 1.58065 20.777C0.674363 20.7074 0.00336465 19.9144 0.012079 18.9993C0.0207932 18.0408 0.62208 17.361 1.57193 17.2826C2.07736 17.2391 2.5915 17.2565 3.10564 17.2479C3.25378 17.2479 3.40193 17.2479 3.55008 17.2479C3.55008 16.0365 3.55008 14.8688 3.55008 13.6749C2.94879 13.6749 2.36494 13.6924 1.78979 13.6749C0.430366 13.64 -0.39749 12.2458 0.221223 11.0258C0.543651 10.381 1.11008 10.137 1.78979 10.1195C2.37364 10.1108 2.96621 10.1195 3.57622 10.1195C3.57622 9.50954 3.55878 8.94312 3.57622 8.37669C3.61979 6.94754 4.26464 5.87569 5.51949 5.17855C6.0772 4.87355 6.66977 4.76026 7.2972 4.76026C7.83749 4.76026 8.37777 4.76026 8.9442 4.76026C8.9442 4.09798 8.91806 3.47927 8.95292 2.86927C9.0052 1.77999 9.85048 1.08285 10.931 1.21356C11.8025 1.31813 12.4648 2.02398 12.4909 2.90413C12.5083 3.51413 12.4909 4.12413 12.4909 4.73412C13.7109 4.73412 14.8786 4.73412 16.0986 4.73412C16.0986 4.06312 16.055 3.40956 16.1073 2.7647C16.2118 1.50113 17.5364 0.803991 18.6607 1.39656C19.3664 1.76256 19.6453 2.38128 19.6453 3.14813C19.6453 3.6797 19.6453 4.20256 19.6453 4.73412C20.8653 4.73412 22.0243 4.73412 23.2181 4.73412C23.2181 4.10669 23.2007 3.50541 23.2181 2.90413C23.2618 1.71028 24.4469 0.917276 25.571 1.30942C26.2855 1.55342 26.7562 2.2157 26.7735 3.01742C26.7823 3.59256 26.7735 4.16769 26.7735 4.76898C27.3749 4.76898 27.9325 4.76026 28.4903 4.76898C30.5556 4.79512 32.1067 6.35497 32.1328 8.42026C32.1416 8.89954 32.1328 9.37011 32.1328 9.84939C32.1328 9.93654 32.1503 10.0237 32.1589 10.1283C32.7515 10.1283 33.3179 10.1195 33.8844 10.1283C34.5467 10.137 35.0695 10.4245 35.4181 10.991C35.5314 11.174 35.6012 11.3918 35.6882 11.5836C35.6882 11.8188 35.6882 12.0454 35.6882 12.2807C35.514 12.5944 35.3919 12.9343 35.1654 13.2044C34.843 13.5878 34.3638 13.6924 33.8757 13.6837C33.3006 13.6837 32.7254 13.6837 32.1503 13.6837C32.1503 14.895 32.1503 16.0627 32.1503 17.2565C32.6906 17.2565 33.2134 17.2565 33.7275 17.2565C34.2417 17.2565 34.7471 17.3437 35.0957 17.7445C35.3397 18.0234 35.4965 18.3806 35.6882 18.703C35.6882 18.9558 35.6882 19.2172 35.6882 19.4699C35.6535 19.5396 35.6186 19.6094 35.5924 19.6791C35.3572 20.35 34.8865 20.7247 34.1894 20.8033C33.8931 20.838 33.5881 20.8381 33.2918 20.8381C32.9171 20.8468 32.5337 20.8381 32.1503 20.8381C32.1503 22.0493 32.1503 23.2171 32.1503 24.411C32.2984 24.411 32.4205 24.411 32.5512 24.411C33.013 24.411 33.4749 24.4022 33.9454 24.4196C34.9039 24.4545 35.4181 25.0297 35.697 25.8836C35.697 26.1189 35.697 26.3455 35.697 26.5808C35.3746 27.6787 34.5903 28.0448 33.5184 27.975C33.0739 27.9489 32.6208 27.975 32.1328 27.975C32.1328 28.5763 32.1416 29.134 32.1328 29.7005C32.1067 31.6176 30.7559 33.1164 28.8563 33.3082C28.3072 33.3604 27.7408 33.3257 27.1831 33.3343C27.0524 33.3343 26.9217 33.3343 26.7735 33.3343C26.7735 33.9618 26.7823 34.5282 26.7735 35.0946C26.7649 35.7569 26.4773 36.2798 25.9108 36.6283C25.7278 36.7416 25.5187 36.8113 25.3183 36.8985C25.083 36.8985 24.8565 36.8985 24.6211 36.8985C23.5144 36.5064 23.1223 35.6872 23.2095 34.5631C23.2443 34.1622 23.2181 33.7613 23.2181 33.3604C22.0068 33.3604 20.8392 33.3604 19.6104 33.3604C19.6104 34.0576 19.6453 34.7287 19.6018 35.3997C19.5581 36.1054 19.1486 36.5673 18.4863 36.8025C18.4079 36.8025 18.3381 36.8374 18.2684 36.8723ZM28.56 29.7266C28.56 29.5698 28.56 29.4391 28.56 29.317C28.56 22.4502 28.56 15.5833 28.5688 8.71654C28.5688 8.40283 28.499 8.30697 28.1679 8.30697C21.2923 8.31568 14.408 8.31568 7.53249 8.30697C7.20135 8.30697 7.13164 8.40283 7.13164 8.71654C7.14035 15.5833 7.14034 22.4502 7.14034 29.317C7.14034 29.4478 7.14906 29.5871 7.15777 29.7266C14.3034 29.7266 21.3969 29.7266 28.56 29.7266Z" fill="#8A8A8A"/>
<path d="M10.731 26.1357C10.731 21.3864 10.731 16.6634 10.731 11.9141C15.4716 11.9141 20.2034 11.9141 24.9527 11.9141C24.9527 16.6459 24.9527 21.3778 24.9527 26.1357C20.2207 26.1357 15.4977 26.1357 10.731 26.1357Z" fill="#8A8A8A"/>
</svg>
