<svg width="40" height="40" viewBox="0 0 40 40" fill="none" xmlns="http://www.w3.org/2000/svg">
                  <path d="M34.1388 5H5.86125C4.63868 5.00132 3.46656 5.48758 2.60207 6.35207C1.73758 7.21656 1.25132 8.38868 1.25 9.61125V30.3888C1.25132 31.6113 1.73758 32.7834 2.60207 33.6479C3.46656 34.5124 4.63868 34.9987 5.86125 35H34.1388C35.3613 34.9987 36.5334 34.5124 37.3979 33.6479C38.2624 32.7834 38.7487 31.6113 38.75 30.3888V9.61125C38.7487 8.38868 38.2624 7.21656 37.3979 6.35207C36.5334 5.48758 35.3613 5.00132 34.1388 5ZM5.86125 7.5H34.1388C34.6985 7.50066 35.2351 7.72331 35.6309 8.1191C36.0267 8.51489 36.2493 9.05151 36.25 9.61125V10.5675L20 21.0138L3.75 10.5675V9.61125C3.75066 9.05151 3.97331 8.51489 4.3691 8.1191C4.76489 7.72331 5.30151 7.50066 5.86125 7.5ZM34.1388 32.5H5.86125C5.30151 32.4993 4.76489 32.2767 4.3691 31.8809C3.97331 31.4851 3.75066 30.9485 3.75 30.3888V13.54L19.3237 23.5512C19.5254 23.681 19.7602 23.75 20 23.75C20.2398 23.75 20.4746 23.681 20.6763 23.5512L36.25 13.54V30.3888C36.2493 30.9485 36.0267 31.4851 35.6309 31.8809C35.2351 32.2767 34.6985 32.4993 34.1388 32.5Z" fill="white"/>
                </svg> 