<svg width="60" height="73" viewBox="0 0 60 73" fill="none" xmlns="http://www.w3.org/2000/svg">
  <g clip-path="url(#clip0_526_327)">
    <path
      d="M31.8449 0C33.2073 0.227058 34.6075 0.359508 35.9509 0.700095C44.9386 2.91391 51.4286 8.26868 54.8156 16.878C58.8269 27.0956 56.9916 36.5374 49.896 44.9007C49.5365 45.3169 49.5743 45.5818 49.8203 45.9981C53.0748 51.6556 56.3482 57.3321 59.6027 63.0085C59.7541 63.2734 59.9244 63.5572 59.9812 63.8411C60.1325 64.6168 59.4514 65.1845 58.581 64.9953C56.4996 64.5601 54.4372 64.087 52.3558 63.6329C51.5043 63.4437 50.6529 63.2734 49.7446 63.0653C49.2148 64.7304 48.704 66.3387 48.1742 67.947C47.7957 69.158 47.3984 70.369 47.0199 71.5989C46.8686 72.1097 46.6037 72.5071 46.0171 72.5639C45.4305 72.6206 45.1089 72.299 44.844 71.8259C44.352 70.9177 43.8033 70.0284 43.2924 69.1201C42.914 68.4579 43.0654 67.8335 43.6141 67.5307C44.1628 67.228 44.7115 67.3983 45.1089 68.0416C45.2602 68.2687 45.3927 68.5147 45.6008 68.8931C46.2252 66.9063 46.8118 65.0899 47.3984 63.2545C47.5687 62.7058 47.72 62.176 47.9093 61.6272C48.1742 60.8704 48.5904 60.6433 49.3851 60.8136C51.7882 61.3434 54.1723 61.8543 56.7645 62.4219C53.756 57.1996 50.8232 52.1097 47.8525 46.9253C44.5412 49.8392 40.7948 51.8638 36.4807 52.9991C36.6131 53.245 36.7267 53.4721 36.8402 53.6802C38.6567 56.8401 40.4731 59.9811 42.2896 63.141C42.4031 63.3491 42.5356 63.5572 42.6112 63.7654C42.8194 64.3141 42.6302 64.7682 42.1571 65.0331C41.6652 65.3169 41.1921 65.2223 40.8137 64.7871C40.6623 64.6168 40.5488 64.3898 40.4353 64.1816C38.4864 60.7758 36.5185 57.3888 34.5696 53.983C34.3236 53.5667 34.0777 53.4342 33.6235 53.5099C31.1827 53.8884 28.7229 53.8884 26.282 53.5099C25.79 53.4342 25.5819 53.6235 25.3549 54.0208C21.9868 59.9054 18.5999 65.771 15.2129 71.6367C15.0048 72.0151 14.6453 72.299 14.3615 72.6395C14.1155 72.6395 13.8884 72.6395 13.6425 72.6395C13.3965 72.2611 13.037 71.9205 12.9045 71.5042C12.0531 68.9309 11.2394 66.3387 10.4258 63.7464C10.369 63.5572 10.2934 63.3491 10.1988 63.122C7.28485 63.7654 4.40878 64.3709 1.53272 65.0331C1.00292 65.1466 0.548801 65.1466 0.189293 64.6925C-0.151294 64.2384 -0.0566865 63.7843 0.208214 63.3113C1.79762 60.5676 3.3681 57.824 4.9575 55.0804C5.3927 54.3425 5.94142 54.1343 6.52799 54.456C7.11455 54.7777 7.22808 55.421 6.79289 56.1779C5.75221 57.9943 4.6926 59.8297 3.65192 61.6462C3.51947 61.8732 3.40594 62.1003 3.19781 62.4598C4.08712 62.2706 4.8629 62.1381 5.61976 61.9678C7.19024 61.6272 8.76072 61.2677 10.3123 60.9082C11.3908 60.6622 11.7692 60.8893 12.1098 61.9489C12.8288 64.2195 13.5479 66.4901 14.3426 68.9499C17.4268 63.5762 20.4542 58.3349 23.5195 52.9991C19.2432 51.8827 15.4778 49.8959 12.1666 46.9631C12.0531 47.1145 11.9395 47.2469 11.8449 47.3983C11.1259 48.6471 10.4069 49.8959 9.68787 51.1447C9.15807 52.0719 8.68504 52.299 8.02278 51.9394C7.36053 51.5799 7.30377 51.0312 7.83357 50.123C8.72288 48.5714 9.61219 47.0009 10.5393 45.4115C10.1231 44.9196 9.68787 44.4276 9.2716 43.9167C4.74937 38.2781 2.70585 31.8638 3.31134 24.6547C3.91682 17.3888 7.03887 11.3718 12.4883 6.52791C13.1316 5.94134 13.7938 5.9035 14.229 6.41438C14.6831 6.94418 14.5885 7.53075 13.9074 8.11731C9.42297 12.053 6.58475 16.9536 5.67652 22.8382C4.38986 31.2015 6.73612 38.5052 12.7153 44.4844C17.8619 49.6121 24.1817 51.9773 31.4286 51.5989C42.4599 51.0123 51.7882 42.9896 54.1344 32.1665C57.0862 18.6566 48.3634 5.29801 34.7967 2.59224C29.1391 1.4948 23.7465 2.30842 18.6188 4.91958C18.4485 5.01419 18.2971 5.1088 18.1269 5.18448C17.4835 5.48723 16.878 5.33586 16.5942 4.78713C16.3104 4.25733 16.5185 3.63292 17.124 3.29234C19.6595 1.89215 22.3653 0.946074 25.2224 0.435194C26.1496 0.264901 27.0767 0.151372 28.0039 0C29.2905 0 30.5583 0 31.8449 0Z"
      fill="#42B42F" />
    <path
      d="M49.5935 26.9632C49.461 28.1741 49.3475 29.3283 49.1772 30.4636C49.0448 31.4097 48.5717 31.807 47.8527 31.6557C47.1905 31.5232 46.9256 30.9556 47.0769 30.0852C48.3825 23.0275 45.2226 15.8562 39.1299 12.0719C28.4961 5.46835 14.5131 12.0152 12.7912 24.4277C11.4289 34.229 18.3541 43.2924 28.1744 44.2006C35.5348 44.8818 41.2113 41.8733 45.0902 35.5346C45.2416 35.2697 45.374 34.9859 45.5632 34.7399C45.9038 34.2858 46.3768 34.1722 46.8877 34.4371C47.4175 34.721 47.5878 35.194 47.3797 35.7616C47.3229 35.913 47.2472 36.0644 47.1526 36.2158C43.3305 43.2545 35.8187 47.247 27.8149 46.3387C19.2434 45.3737 12.7534 39.054 10.9937 31.334C8.53389 20.5109 15.2321 10.0474 26.093 7.70109C36.5755 5.43051 47.3797 12.6964 49.1583 23.2545C49.3664 24.5034 49.4421 25.7522 49.5935 26.9632Z"
      fill="#42B42F" />
    <path
      d="M30.2935 14.3235C30.4449 14.4749 30.8423 14.7208 31.0126 15.0803C31.9586 16.9157 32.8479 18.7511 33.7372 20.6054C33.9454 21.0217 34.1724 21.2298 34.6833 21.3055C36.7268 21.5515 38.7514 21.8353 40.776 22.1948C41.1545 22.2705 41.6653 22.6489 41.7789 22.9895C41.8924 23.2923 41.6464 23.8788 41.3815 24.1437C39.9246 25.6385 38.4298 27.0766 36.9161 28.5146C36.6322 28.7795 36.5187 29.0255 36.5944 29.4417C36.9728 31.5042 37.3512 33.5855 37.6351 35.6669C37.6918 36.0453 37.5026 36.5562 37.2566 36.84C36.9161 37.2374 36.4052 37.1049 35.9511 36.8779C34.1346 35.9129 32.3181 34.9668 30.5206 33.9829C30.1232 33.7558 29.8205 33.7748 29.4042 33.9829C27.6256 34.9479 25.8091 35.894 24.0305 36.84C23.5575 37.086 23.1034 37.2185 22.6303 36.859C22.1951 36.5373 22.1573 36.1021 22.2519 35.5912C22.6303 33.5477 22.9331 31.4853 23.3115 29.4417C23.3872 29.0255 23.2926 28.7795 23.0088 28.5146C21.5329 27.0955 20.057 25.6385 18.5811 24.2194C18.2027 23.8599 17.9189 23.4815 18.127 22.9138C18.3162 22.3651 18.7704 22.2137 19.2812 22.1381C21.2869 21.8542 23.2926 21.5515 25.3172 21.2866C25.7524 21.2298 25.9794 21.0595 26.1497 20.6811C27.039 18.8079 27.9851 16.9536 28.8744 15.0803C29.1772 14.6073 29.4799 14.3235 30.2935 14.3235ZM24.7306 34.0586C25.7335 33.5288 26.6417 33.0368 27.5688 32.5827C30.5395 31.069 29.461 31.0311 32.4695 32.5827C33.3777 33.0557 34.267 33.5288 35.2699 34.0586C34.9861 32.4313 34.7779 30.9365 34.4563 29.4607C34.267 28.5524 34.4373 27.8713 35.1564 27.2658C35.97 26.5846 36.689 25.7899 37.4648 25.052C37.8054 24.7303 38.1649 24.4465 38.6379 24.0302C36.7836 23.7653 35.2131 23.4815 33.6048 23.3112C32.8858 23.2355 32.4506 22.8949 32.1668 22.2516C31.5613 20.946 30.9179 19.6593 30.2746 18.3727C30.1989 18.2213 30.0854 18.0889 29.953 17.8618C29.1961 19.3944 28.4771 20.8136 27.7959 22.2705C27.5121 22.8949 27.0958 23.2166 26.4146 23.2923C24.8063 23.4815 23.2169 23.7464 21.741 23.9545C22.7628 25.052 23.7656 26.2062 24.8631 27.2658C25.5253 27.8902 25.7145 28.5335 25.5442 29.4039C25.2226 30.9176 25.0144 32.4313 24.7306 34.0586Z"
      fill="#42B42F" />
  </g>
  <defs>
    <clipPath id="clip0_526_327">
      <rect width="60" height="72.6585" fill="white" />
    </clipPath>
  </defs>
</svg> 