<svg width="50" height="50" viewBox="0 0 50 50" fill="none" xmlns="http://www.w3.org/2000/svg">
                      <g clip-path="url(#clip0_81_6392)">
                      <path d="M14.9637 23.952C15.1823 24.1707 15.4689 24.2799 15.7554 24.2799C16.0419 24.2799 16.3286 24.1707 16.5472 23.952C16.9844 23.5147 16.9844 22.8057 16.5472 22.3684L14.4633 20.2845L17.4486 17.2991C17.8859 16.8619 17.8859 16.1529 17.4486 15.7156C17.0114 15.2784 16.3024 15.2784 15.8651 15.7156L12.8799 18.701L10.2576 16.0788L13.243 13.0934C13.6803 12.6561 13.6803 11.9471 13.243 11.5098C12.8058 11.0725 12.0968 11.0725 11.6594 11.5098L8.67404 14.4952L2.706 8.52722L8.5595 2.71314L22.3809 16.5346C22.8182 16.9718 23.5272 16.9718 23.9646 16.5346C24.4018 16.0973 24.4018 15.3883 23.9646 14.9511L9.35404 0.340589C8.9178 -0.0955368 8.21082 -0.0967685 7.77313 0.337902L0.330651 7.72999C0.119474 7.93982 0.000449155 8.2249 1.27137e-06 8.52252C-0.000446612 8.82014 0.117459 9.10566 0.327964 9.31617L14.9637 23.952Z" fill="currentColor"/>
                      <path d="M49.6726 40.6586L35.0494 26.0355C34.6122 25.5982 33.9032 25.5982 33.4658 26.0355C33.0286 26.4727 33.0286 27.1817 33.4658 27.6191L47.2972 41.4504L41.4634 47.2842L35.4928 41.3134L38.4782 38.3281C38.9154 37.8908 38.9154 37.1818 38.4782 36.7446C38.0409 36.3073 37.3319 36.3073 36.8947 36.7446L33.9094 39.7299L31.2872 37.1077L34.2726 34.1223C34.7098 33.6851 34.7098 32.9761 34.2726 32.5387C33.8353 32.1014 33.1263 32.1015 32.689 32.5387L29.7036 35.5241L27.6322 33.4527C27.195 33.0156 26.486 33.0156 26.0486 33.4527C25.6114 33.89 25.6114 34.599 26.0486 35.0363L40.6718 49.6595C40.8905 49.8782 41.177 49.9875 41.4635 49.9875C41.7501 49.9875 42.0367 49.8782 42.2553 49.6595L49.6726 42.2422C50.1097 41.8049 50.1097 41.0959 49.6726 40.6586Z" fill="currentColor"/>
                      <path d="M7.0905 6.94086C6.66747 7.36377 6.43457 7.9262 6.43457 8.52446C6.43457 9.12261 6.66758 9.68504 7.0905 10.108C7.51341 10.531 8.07584 10.7639 8.67399 10.7639C9.27213 10.7639 9.83456 10.5309 10.2576 10.108C11.1306 9.2348 11.1306 7.81412 10.2576 6.94097C9.83456 6.51806 9.27225 6.28516 8.67399 6.28516C8.07573 6.28516 7.51341 6.51783 7.0905 6.94086Z" fill="currentColor"/>
                      <path d="M43.0467 42.8971C43.4696 42.4741 43.7026 41.9118 43.7026 41.3136C43.7026 40.7155 43.4696 40.1531 43.0467 39.73C42.6236 39.3071 42.0613 39.0742 41.463 39.0742C40.8649 39.0742 40.3026 39.3071 39.8796 39.73C39.4565 40.1531 39.2236 40.7154 39.2236 41.3136C39.2236 41.9118 39.4565 42.4741 39.8794 42.8971C40.3025 43.3202 40.8648 43.5531 41.4629 43.5531C42.0613 43.5531 42.6236 43.3202 43.0467 42.8971Z" fill="currentColor"/>
                      <path d="M45.0603 12.8574C45.0605 12.8572 45.0607 12.8571 45.0609 12.8569C45.0611 12.8566 45.0612 12.8565 45.0614 12.8563L48.2688 9.64889C50.4517 7.46602 50.4517 3.91419 48.2688 1.73132C47.2127 0.675326 45.8068 0.09375 44.3101 0.09375C42.8133 0.09375 41.4074 0.675326 40.3513 1.73143L37.1444 4.93828C37.1441 4.93861 37.1437 4.93895 37.1433 4.93929C37.143 4.93962 37.1426 4.94007 37.1423 4.94041L33.185 8.89768C33.185 8.89768 33.1847 8.8979 33.1846 8.89813C33.1845 8.89835 33.1844 8.89846 33.1841 8.89857L7.51999 34.5626C7.51786 34.5647 7.51618 34.5673 7.51405 34.5694C7.47979 34.6044 7.44799 34.6414 7.41854 34.6804C7.41216 34.6888 7.40645 34.6975 7.40029 34.7062C7.37465 34.7423 7.35091 34.7797 7.32964 34.8186C7.32728 34.8229 7.32404 34.8268 7.32169 34.8311L3.15111 42.7233C3.14898 42.7272 3.14685 42.7311 3.14484 42.7351L0.223521 48.2636C-0.00601887 48.6979 0.0743762 49.2311 0.42171 49.5786C0.637029 49.7938 0.923563 49.9065 1.21379 49.9065C1.39194 49.9065 1.57143 49.8641 1.73658 49.7768L7.26559 46.855C7.26917 46.8532 7.27264 46.8513 7.27623 46.8494L15.1689 42.6785C15.1711 42.6774 15.173 42.6758 15.1751 42.6747C15.2181 42.6515 15.2594 42.6253 15.299 42.5969C15.306 42.5918 15.3129 42.5869 15.3198 42.5817C15.3586 42.5524 15.3956 42.5207 15.4305 42.4865C15.4327 42.4842 15.4354 42.4825 15.4377 42.4803L45.0603 12.8574ZM6.95756 44.4848L5.51537 43.0426L7.87292 38.5815L8.35697 40.7894C8.3582 40.7951 8.36055 40.8004 8.36189 40.8061C8.37164 40.8478 8.38384 40.8887 8.3984 40.9293C8.4012 40.937 8.40355 40.9447 8.40646 40.9523C8.4237 40.9972 8.44386 41.0411 8.46715 41.084C8.47073 41.0906 8.47487 41.0968 8.47857 41.1033C8.4985 41.1383 8.52067 41.1724 8.54474 41.2055C8.55168 41.215 8.5584 41.2245 8.56557 41.2338C8.59435 41.271 8.62491 41.3073 8.65895 41.3414C8.6931 41.3756 8.72938 41.4062 8.76667 41.4349C8.77585 41.442 8.78526 41.4487 8.79466 41.4555C8.82803 41.4797 8.86229 41.502 8.89756 41.5222C8.90383 41.5257 8.90977 41.5297 8.91615 41.5331C8.95915 41.5565 9.00326 41.5767 9.04827 41.594C9.05567 41.5968 9.06317 41.5992 9.07056 41.6019C9.11132 41.6166 9.15274 41.6289 9.19473 41.6387C9.20022 41.6401 9.20537 41.6423 9.21097 41.6435L11.4188 42.1275L6.95756 44.4848ZM11.6897 39.894L15.8057 35.7778C16.243 35.3406 16.243 34.6316 15.8057 34.1943C15.3685 33.7571 14.6595 33.7571 14.2222 34.1943L10.1062 38.3104L9.53669 35.7129L33.9763 11.2734L35.5598 12.8569L16.9227 31.4938C16.4855 31.9311 16.4855 32.6401 16.9227 33.0774C17.1414 33.2961 17.4279 33.4054 17.7145 33.4054C18.001 33.4054 18.2877 33.296 18.5062 33.0774L37.1432 14.4405L38.7267 16.0239L14.2872 40.4635L11.6897 39.894ZM37.9351 7.31475L42.6855 12.0652L40.3103 14.4405L35.5598 9.68998L37.9351 7.31475ZM41.9348 3.31504C42.5679 2.68184 43.4114 2.33317 44.31 2.33317C45.2086 2.33317 46.0522 2.68184 46.6851 3.31493C47.9949 4.62465 47.9949 6.75568 46.6851 8.0654L44.269 10.4815L39.5186 5.73103L41.9348 3.31504ZM4.42041 45.1147L4.88554 45.5799L3.89919 46.1011L4.42041 45.1147Z" fill="currentColor"/>
                      </g>
                      <defs>
                      <clipPath id="clip0_81_6392">
                      <rect width="50" height="50" fill="white"/>
                      </clipPath>
                      </defs>
                    </svg> 