<svg width="40" height="40" viewBox="0 0 40 40" fill="none" xmlns="http://www.w3.org/2000/svg">
  <g clip-path="url(#clip0_81_338)">
  <path d="M34.375 39.2187V34.5312C34.375 34.0997 34.0253 33.75 33.5937 33.75C33.1622 33.75 32.8125 34.0997 32.8125 34.5312V38.4375H28.9062C28.4747 38.4375 28.125 38.7872 28.125 39.2187C28.125 39.6503 28.4747 40 28.9062 40H33.5937C34.0253 40 34.375 39.6503 34.375 39.2187Z" fill="white"></path>
  <path d="M17.9687 36.4062C17.9687 36.8378 17.619 37.1875 17.1875 37.1875C16.756 37.1875 16.4062 36.8378 16.4062 36.4062C16.4062 35.9747 16.756 35.625 17.1875 35.625C17.619 35.625 17.9687 35.9747 17.9687 36.4062Z" fill="white"></path>
  <path d="M13.5254 36.7947C13.5815 36.8069 13.6374 36.813 13.6926 36.813C14.0518 36.813 14.3756 36.5634 14.4549 36.1978C14.5468 35.776 14.2795 35.3598 13.858 35.2682C6.73339 33.7161 1.5625 27.2949 1.5625 20C1.5625 11.3843 8.57177 4.375 17.1875 4.375C24.1446 4.375 30.3119 9.08386 32.2116 15.7031H32.1875C31.9946 15.7031 31.8081 15.7745 31.665 15.9036L29.5022 17.8497C28.4833 11.9839 23.3575 7.5 17.1875 7.5C10.2948 7.5 4.6875 13.1076 4.6875 20C4.6875 26.8924 10.2948 32.5 17.1875 32.5C23.3575 32.5 28.4839 28.0154 29.5016 22.1496L31.6647 24.0964C31.8081 24.2254 31.9943 24.2969 32.1875 24.2969H32.2116C30.6396 29.7873 26.1435 34.042 20.517 35.2679C20.0952 35.3598 19.8282 35.776 19.9197 36.1978C19.9994 36.5634 20.3229 36.8127 20.6824 36.8127C20.7376 36.8127 20.7934 36.8069 20.8496 36.7947C27.185 35.4144 32.218 30.5435 33.8315 24.2969H39.2187C39.5068 24.2969 39.7714 24.1382 39.9075 23.8843C40.0433 23.6304 40.0287 23.3221 39.8687 23.0823L37.814 20L39.8687 16.9177C40.0287 16.6782 40.0436 16.3696 39.9075 16.1157C39.7714 15.8618 39.5068 15.7031 39.2187 15.7031H33.8305C31.8817 8.17779 25.0555 2.8125 17.1875 2.8125C7.71026 2.8125 0 10.5228 0 20C0 28.1991 5.78704 35.1092 13.5254 36.7947ZM17.1875 30.9375C11.1566 30.9375 6.24999 26.0309 6.24999 20C6.24999 13.9691 11.1566 9.0625 17.1875 9.0625C22.9193 9.0625 27.6394 13.4521 28.0896 19.1217L27.9815 19.2187H24.9588C24.5654 15.2774 21.2301 12.189 17.1875 12.189C12.8805 12.189 9.37652 15.693 9.37652 20C9.37652 24.3069 12.8805 27.811 17.1875 27.811C21.2304 27.811 24.5654 24.7229 24.9588 20.7812H27.9812L28.089 20.878C27.6397 26.5478 22.9202 30.9375 17.1875 30.9375ZM20.2136 19.2187C19.8657 17.8723 18.641 16.875 17.1875 16.875C15.4645 16.875 14.0625 18.277 14.0625 20C14.0625 21.723 15.4645 23.125 17.1875 23.125C18.641 23.125 19.8657 22.1268 20.2136 20.7803H23.3844C22.9986 23.8583 20.3677 26.2485 17.1875 26.2485C13.7421 26.2485 10.939 23.4454 10.939 20C10.939 16.5546 13.7421 13.7515 17.1875 13.7515C20.3677 13.7515 22.9986 16.141 23.3844 19.2187H20.2136ZM18.75 20C18.75 20.8615 18.049 21.5625 17.1875 21.5625C16.326 21.5625 15.625 20.8615 15.625 20C15.625 19.1385 16.326 18.4375 17.1875 18.4375C18.049 18.4375 18.75 19.1385 18.75 20ZM36.2249 20.4333L37.7591 22.7344H32.4872L29.6063 20.1416C29.5761 20.0763 29.5373 20.0159 29.4909 19.9618L32.4872 17.2656H37.7591L36.2249 19.5666C36.0501 19.8291 36.0501 20.1709 36.2249 20.4333Z" fill="white"></path>
  <path d="M0.781249 6.24999C1.21277 6.24999 1.5625 5.90026 1.5625 5.46875V1.5625H5.46875C5.90026 1.5625 6.24999 1.21277 6.24999 0.781249C6.24999 0.349731 5.90026 0 5.46875 0H0.781249C0.349731 0 0 0.349731 0 0.781249V5.46875C0 5.90026 0.349731 6.24999 0.781249 6.24999Z" fill="white"></path>
  <path d="M33.5937 6.24999C34.0253 6.24999 34.375 5.90026 34.375 5.46875V0.781249C34.375 0.349731 34.0253 0 33.5937 0H28.9062C28.4747 0 28.125 0.349731 28.125 0.781249C28.125 1.21277 28.4747 1.5625 28.9062 1.5625H32.8125V5.46875C32.8125 5.90026 33.1622 6.24999 33.5937 6.24999Z" fill="white"></path>
  <path d="M0.781249 40H5.46875C5.90026 40 6.24999 39.6503 6.24999 39.2187C6.24999 38.7872 5.90026 38.4375 5.46875 38.4375H1.5625V34.5312C1.5625 34.0997 1.21277 33.75 0.781249 33.75C0.349731 33.75 0 34.0997 0 34.5312V39.2187C0 39.6503 0.349731 40 0.781249 40Z" fill="white"></path>
  </g>
  <defs>
  <clipPath id="clip0_81_338">
  <rect width="40" height="40" fill="white"></rect>
  </clipPath>
  </defs>
</svg>