<svg width="34" height="40" viewBox="0 0 34 40" fill="none" xmlns="http://www.w3.org/2000/svg">
                        <path d="M16.2012 35.1591V36.3801C16.2012 36.8799 16.6064 37.2851 17.1061 37.2851C17.6059 37.2851 18.0111 36.8799 18.0111 36.3801V35.1591C18.0111 34.6593 17.6059 34.2542 17.1061 34.2542C16.6064 34.2542 16.2012 34.6593 16.2012 35.1591Z" fill="white"/>
                        <path d="M31.1066 4.58742H30.5865V3.17611C30.5865 1.4248 29.1617 0 27.4104 0H4.75042C2.99911 0 1.57431 1.4248 1.57431 3.17611V4.58751H1.10517C0.605444 4.58751 0.200195 4.99267 0.200195 5.49249C0.200195 5.99231 0.605444 6.39747 1.10517 6.39747H1.57431V7.80878C1.57431 9.56009 2.99911 10.9849 4.75042 10.9849H27.4105C29.1618 10.9849 30.5866 9.56009 30.5866 7.80878V6.39738H31.1067C31.5044 6.39738 31.9902 6.81819 31.9902 7.30932V11.7605C31.9902 12.3235 31.5037 12.9028 30.9492 13.0001L18.7389 15.1427C17.3157 15.3925 16.2008 16.72 16.2008 18.165V21.1112H13.6185C13.3526 21.1112 13.1 21.2281 12.9282 21.431C12.7562 21.6338 12.6821 21.9021 12.7257 22.1644L13.4967 26.8063V37.3982C13.4967 38.8329 14.6638 40 16.0985 40H18.1132C19.5479 40 20.715 38.8329 20.715 37.3982V26.8062L21.486 22.1643C21.5295 21.902 21.4555 21.6338 21.2835 21.431C21.1117 21.2281 20.8592 21.1111 20.5932 21.1111H18.011V18.1649C18.011 17.6019 18.4974 17.0226 19.052 16.9253L31.2622 14.7828C32.6854 14.533 33.8003 13.2055 33.8003 11.7605V7.30932C33.8 5.85937 32.5414 4.58742 31.1066 4.58742ZM28.7766 7.80878C28.7766 8.56208 28.1638 9.17493 27.4104 9.17493H4.75042C3.99712 9.17493 3.38427 8.56208 3.38427 7.80878V3.17611C3.38427 2.42281 3.99703 1.80995 4.75042 1.80995H27.4105C28.1638 1.80995 28.7767 2.42281 28.7767 3.17611V7.80878H28.7766ZM18.9171 26.5834C18.909 26.6325 18.9049 26.682 18.9049 26.7317V37.3982C18.9049 37.8348 18.5497 38.19 18.113 38.19H16.0983C15.6616 38.19 15.3064 37.8348 15.3064 37.3982V27.6367H16.19C16.6897 27.6367 17.0949 27.2315 17.0949 26.7317C17.0949 26.2319 16.6897 25.8267 16.19 25.8267H15.1686L14.6861 22.9212H19.5254L18.9171 26.5834Z" fill="white"/>
                      </svg>   